<svg xmlns="http://www.w3.org/2000/svg" width="387.685" height="407.382" viewBox="0 0 387.685 407.382">
  <g id="Group_5063" data-name="Group 5063" transform="translate(0 450.797)">
    <path id="Path_65741" data-name="Path 65741" d="M263.137-305.13c2.533-4.637,3.183-10.361,4.435-15.6,1.873-7.84,5.724-15.5,9.692-22.494,4.654-8.2,11.952-20.257,21.588-22.956,4.453,10.779,8.825,20.438,8.636,32.548-.2,12.79-6.016,25.28-16.638,32.658-4.413,3.065-10.464,5.516-15.769,3.736-5.251-1.762-9.887-7.635-7.329-13.195" transform="translate(-25.342 -8.149)" fill="#c8e7e2"/>
    <path id="Path_65742" data-name="Path 65742" d="M281.513-278.591c-2.389-5.281,4.32-19.718,6.319-24.792a82.3,82.3,0,0,1,17.43-26.608c10.447-11,23.95-24.594,39.8-26.729-2.769,5.966-2.181,14.281-3.515,20.83-2.377,11.659-7.416,22.114-14.056,31.977C319.2-291.6,305.865-275.78,290-275.037,286.436-274.87,282.069-275.673,281.513-278.591Z" transform="translate(-27.063 -9.06)" fill="#9cd7ce"/>
    <path id="Path_65743" data-name="Path 65743" d="M275.248-249.316c-.08-10.381,8.24-20,16.084-25.856,13.089-9.78,27.5-11.16,43.169-12.155-4.267,18.9-14.968,40.74-32.921,50.327-6.975,3.725-12.3,2.45-18.4-1.984C279.564-241.612,274.747-246.822,275.248-249.316Z" transform="translate(-26.505 -15.744)" fill="#c8e7e2"/>
    <path id="Path_65744" data-name="Path 65744" d="M350.34-148.28c-8.185-4.5,22.215-24.435,25.583-26.019,14.2-6.678,30.1-9.242,45.368-6.079-14.335,12.25-25.944,27.535-44.39,34.488-5.747,2.166-11.517,2.215-17.508,1.539C356.616-144.664,349.871-145.619,350.34-148.28Z" transform="translate(-33.606 -25.914)" fill="#c8e7e2"/>
    <path id="Path_65745" data-name="Path 65745" d="M321.581-125.037c2.014-4.408,8.025-9.107,10.769-11.5a59.759,59.759,0,0,1,19.469-11.435c17.582-6.221,35.062-3.6,52.389,2.441-6.847,4.266-12.276,11.1-19.236,15.615-11,7.136-24.34,11.1-37.174,13.481-7.791,1.443-14.812,2.262-22.328-.754C320.7-119.106,320.195-122,321.581-125.037Z" transform="translate(-30.906 -28.821)" fill="#9cd7ce"/>
    <path id="Path_65746" data-name="Path 65746" d="M342.742-169.393c-3.805-2.8,11.264-18.784,13.825-21.05,11.066-9.791,24.371-17.008,39.386-16.971-1.972,3.916-1.428,9.471-2.236,13.756-1.11,5.885-3.286,12.162-7.171,16.835-5.89,7.085-14.857,11.687-23.593,13.917C354.332-160.706,346.9-165.447,342.742-169.393Z" transform="translate(-32.95 -23.44)" fill="#9cd7ce"/>
    <path id="Path_65747" data-name="Path 65747" d="M302.871-336.6a8.208,8.208,0,0,0-3.329,1.072,31.869,31.869,0,0,0-2.985,1.864q-1.438,1.01-2.825,2.09c-.225.174-.475.365-.724.569.679-3.163,1.342-6.328,1.965-9.5.421-2.141.825-4.282,1.135-6.441.161-1.116.318-2.231.48-3.347a11.848,11.848,0,0,0-.1-3.38.283.283,0,0,0-.522-.142,11.585,11.585,0,0,0-1.3,2.379c-.305.935-.545,1.9-.819,2.844-.524,1.815-1,3.632-1.456,5.464-.233-.564-.473-1.125-.687-1.7-.352-.935-.672-1.879-1.043-2.808a8.939,8.939,0,0,0-.641-1.482,2,2,0,0,0-.483-.538c-.113-.082-.292-.143-.363-.2a.2.2,0,0,0-.277.073c-.039.09-.159.221-.217.35a1.947,1.947,0,0,0-.142.713,7.26,7.26,0,0,0,.252,1.6,26.912,26.912,0,0,0,.9,3.053,20.645,20.645,0,0,0,1.174,3.054,10.351,10.351,0,0,0,.75,1.165c-.69,2.967-1.352,5.941-2.031,8.91q-.914,3.995-1.833,7.99c-.49-1.133-.993-2.254-1.543-3.365-.7-1.421-1.363-2.861-2.024-4.3-.532-1.162-1.091-2.886-2.3-3.51a.174.174,0,0,0-.252.1c-.423,1.29.392,2.932.827,4.133.539,1.494,1.079,2.984,1.573,4.494s1.042,3,1.639,4.475a11.448,11.448,0,0,0,1.1,2.207q-1.27,5.54-2.542,11.081c-1,4.309-2.327,8.627-1.592,13.066.057.337.5.307.656.087,2.334-3.23,3.078-7.067,3.956-10.887q1.35-5.875,2.677-11.755,1.189-5.274,2.354-10.562c1.2.108,2.26-.791,3.149-1.509q1.3-1.053,2.655-2.037c.927-.675,1.844-1.362,2.767-2.043a10.061,10.061,0,0,0,2.493-2.487A.564.564,0,0,0,302.871-336.6Z" transform="translate(-27.113 -9.327)" fill="#9cd7ce"/>
    <path id="Path_65748" data-name="Path 65748" d="M331.386-273.44c-.131-.047-.229-.259-.35-.346a3.622,3.622,0,0,0-.34-.184,3.626,3.626,0,0,0-.816-.376,9.675,9.675,0,0,0-1.76-.271c-.545-.033-1.14-.113-1.726-.131.562-.493,1.131-.979,1.691-1.475,1.266-1.121,3.07-2.462,3.253-4.247a.411.411,0,0,0-.406-.406c-1.569-.044-2.854,1.252-4.02,2.168-1.416,1.114-2.78,2.3-4.18,3.435q-1.589,1.288-3.182,2.572c.131-.668.25-1.329.389-1.953.239-1.069.42-2.141.576-3.225a6.363,6.363,0,0,0-.169-3.278.205.205,0,0,0-.339-.089,6.409,6.409,0,0,0-1.588,2.789c-.371,1.07-.671,2.158-.937,3.257s-.566,2.19-.8,3.293c-.122.57-.208,1.156-.292,1.733-.649.516-1.3,1.036-1.947,1.548q-6.394,5.022-13.013,9.752c.454-1.273.85-2.57,1.235-3.862.506-1.7.956-3.4,1.3-5.141.173-.862.358-1.731.47-2.6a5.239,5.239,0,0,0,.006-2.471.758.758,0,0,0-1.251-.33,5.393,5.393,0,0,0-.988,2.17c-.274.839-.49,1.7-.744,2.543-.509,1.693-1.017,3.389-1.57,5.067s-1.193,3.33-1.8,4.992a10.965,10.965,0,0,0-.733,2.511c-1.574,1.093-3.164,2.163-4.724,3.275a28.143,28.143,0,0,0-2.379,1.787,4.794,4.794,0,0,0-1.5,2.194.488.488,0,0,0,.466.612,4.168,4.168,0,0,0,2.213-.382,17.684,17.684,0,0,0,2.428-1.372c1.465-.938,2.892-1.926,4.316-2.924q4.35-3.046,8.611-6.216c.286-.212.57-.429.857-.644a9.237,9.237,0,0,0,1.5.2c1.449.106,2.9.162,4.343.309s2.875.393,4.315.575c1.284.161,3.027.7,4.16-.1a.351.351,0,0,0,.123-.469c-.667-1.22-2.434-1.44-3.682-1.72-1.424-.318-2.891-.494-4.339-.675-1.154-.144-2.312-.251-3.472-.338,4.424-3.358,8.787-6.808,13-10.422.289-.248.574-.5.861-.751a5.175,5.175,0,0,0,.891.3,13.194,13.194,0,0,0,2.126.262,14.866,14.866,0,0,0,2.006.049,3.4,3.4,0,0,0,1.046-.238c.126-.046.261-.082.382-.138.173-.081.292-.277.475-.314C331.55-273.172,331.519-273.393,331.386-273.44Z" transform="translate(-27.807 -16.323)" fill="#9cd7ce"/>
    <path id="Path_65749" data-name="Path 65749" d="M406.094-175.5c-1.783.167-3.354,1.721-4.793,2.692-.358.241-.722.472-1.083.708l.007-.059c.015-.106.031-.211.047-.315q.062-.4.139-.793c.107-.556.15-1.1.244-1.647a.721.721,0,0,0-1.31-.552c-.153.217-.291.427-.449.626a4.112,4.112,0,0,0-.457.8c-.268.55-.517,1.114-.739,1.684a9.6,9.6,0,0,0-.4,1.609,5.249,5.249,0,0,0-.093.542c-.193.117-.384.239-.578.355a113.288,113.288,0,0,1-10.192,5.165c-.1.048-.207.093-.31.141.463-.636.916-1.279,1.341-1.938a26.057,26.057,0,0,0,1.754-3.157,8.091,8.091,0,0,0,.661-1.917,8.112,8.112,0,0,0,.15-1,3.81,3.81,0,0,0-.163-.907.614.614,0,0,0-.894-.364l-.229.134a2.791,2.791,0,0,0-1.072.851,9.807,9.807,0,0,0-1.148,1.508c-.635,1.022-1.25,2.058-1.882,3.082-.614.994-1.226,1.987-1.887,2.951a6.163,6.163,0,0,0-1.226,2.8c-5.446,2.321-10.992,4.375-16.557,6.416q-3.038,1.114-6.088,2.187c-1.964.694-4.127,1.318-5.669,2.79a.6.6,0,0,0,.418,1.011,13.725,13.725,0,0,0,5.662-1q2.746-.862,5.484-1.75c.53-.172,1.057-.352,1.585-.53a10.416,10.416,0,0,0,1.958.578c1.225.282,2.448.581,3.686.8,2.3.4,4.987,1.28,7.21.211a.408.408,0,0,0,.082-.636,6.064,6.064,0,0,0-3.152-1.444c-1.244-.208-2.494-.392-3.741-.588-.7-.11-1.405-.2-2.112-.285q2.759-1,5.491-2.061c3.639-1.412,7.241-2.913,10.76-4.605,2.262-1.088,4.446-2.3,6.608-3.553l.2.161a4.724,4.724,0,0,0,.99.545,15.98,15.98,0,0,0,1.766.527,6.628,6.628,0,0,0,2.039.24,2.193,2.193,0,0,0,1.111-.306c.3-.2.634-.41.643-.816.016-.725-1.007-1.136-1.55-1.288a11.656,11.656,0,0,0-1.968-.3l-.342-.05q-.244-.038-.487-.081l-.046-.009c.387-.23.774-.459,1.162-.691.652-.39,1.295-.8,1.938-1.2a.918.918,0,0,0,.356-.2l.039-.042c1.076-.684,2.144-1.382,3.192-2.107,1.535-1.061,3.847-2.27,4.511-4.1A.64.64,0,0,0,406.094-175.5Z" transform="translate(-34.001 -26.485)" fill="#9cd7ce"/>
    <path id="Path_65750" data-name="Path 65750" d="M382.241-188.68q3.545-3.886,6.832-8c.624-.781-.415-1.892-1.125-1.126q-3.028,3.274-6.22,6.4c.025-.1.054-.206.079-.31a18.271,18.271,0,0,0,.46-2.073c.073-.685.033-1.4.057-2.091.005-.151-.185-.174-.261-.07-.4.553-.871,1.087-1.239,1.663a15.952,15.952,0,0,0-.883,1.872c-.314.671-.588,1.352-.859,2.041a5.51,5.51,0,0,0-.561,2.057q-5.072,4.762-10.482,9.15c.087-.267.175-.532.254-.8.331-1.129.635-2.266.953-3.4s.6-2.281.821-3.435c.108-.573.21-1.154.276-1.733a5.11,5.11,0,0,0-.161-1.515.267.267,0,0,0-.443-.117,5.406,5.406,0,0,0-1.126,1.414c-.264.526-.508,1.066-.734,1.609-.5,1.212-.967,2.43-1.4,3.67-.412,1.193-.839,2.382-1.215,3.587a3.07,3.07,0,0,0,.069,2.861c-1.57,1.226-3.15,2.436-4.756,3.611-2.689,1.967-5.919,3.756-7.9,6.495-.372.515.241,1.089.757.985,2.955-.594,5.558-2.653,7.947-4.381,2.511-1.816,4.985-3.694,7.367-5.678,1.853-1.544,3.674-3.138,5.466-4.762a8.132,8.132,0,0,0,1.678.215c.52,0,1.048.066,1.562.055.481-.009.972-.1,1.451-.144,1.054-.1,2.1-.2,3.15-.371.865-.141,2.2-.35,2.66-1.206a.684.684,0,0,0-.1-.794c-.607-.743-2.053-.68-2.919-.657-.971.025-1.934.127-2.9.215-.509.046-1.021.077-1.528.145-.14.02-.277.056-.416.087C378.7-184.976,380.517-186.789,382.241-188.68Z" transform="translate(-33.955 -24.341)" fill="#c8e7e2"/>
    <path id="Path_65751" data-name="Path 65751" d="M387.558-141.364c-1.941-.025-3.834-.042-5.777.094-1.108.077-2.215.191-3.321.313.094-.089.194-.171.286-.264q.935-.946,1.9-1.866c.626-.6,1.261-1.185,1.9-1.769a4.467,4.467,0,0,0,.431-.436c.1-.117.19-.235.282-.353a3.245,3.245,0,0,0,.325-.571c-.086.17.025-.012.07-.079l.185-.268a1.381,1.381,0,0,0,.281-.922.845.845,0,0,0-.609-.8,1.5,1.5,0,0,0-1.073.138c-.1.05-.2.1-.3.155-.027.013-.278.144-.115.075a4.188,4.188,0,0,0-.73.336,5.475,5.475,0,0,0-.723.559c-.654.6-1.3,1.212-1.931,1.832q-.929.906-1.834,1.837c-.32.329-.615.67-.9,1.027-.128.162-.258.323-.385.484a2.254,2.254,0,0,0-.463.985,1.18,1.18,0,0,0-.03.3c-2.49.294-4.981.612-7.464.985l-.231-.087a.848.848,0,0,0-.952.273c-.646.1-1.292.2-1.937.312A79.574,79.574,0,0,0,354.4-136.7c.167-.17.331-.343.5-.51q1.831-1.8,3.78-3.475c1.262-1.084,2.566-2.121,3.852-3.179a14.925,14.925,0,0,0,3.393-3.728c.22-.356-.142-.693-.493-.642a10.828,10.828,0,0,0-4.622,1.918,47.648,47.648,0,0,0-4.234,3.336q-1.937,1.684-3.756,3.5c-.605.6-1.213,1.211-1.787,1.844a6.394,6.394,0,0,0-1.628,2.33,1.226,1.226,0,0,0-.031.362c-1.755.69-3.484,1.449-5.18,2.294a41.194,41.194,0,0,0-4.916,2.786,12.949,12.949,0,0,0-2.217,1.838,24.9,24.9,0,0,0-1.686,2.258.3.3,0,0,0,.334.435,37.487,37.487,0,0,0,4.514-1.9c1.436-.826,2.848-1.688,4.314-2.458a68.19,68.19,0,0,1,9.3-3.965,110.255,110.255,0,0,1,13.261-3.7,17.6,17.6,0,0,0,1.951,1.341q1.3.808,2.637,1.567t2.736,1.393a5.7,5.7,0,0,0,1.766.506,4.911,4.911,0,0,0,1.389-.166.346.346,0,0,0,.2-.5,4.648,4.648,0,0,0-.813-1.213,7.521,7.521,0,0,0-1.222-.891c-.906-.534-1.868-.995-2.8-1.476-.782-.4-1.555-.822-2.324-1.249,1.424-.26,2.852-.5,4.286-.709,2.16-.315,4.327-.57,6.49-.856,2.117-.277,4.162-.713,6.243-1.166A.3.3,0,0,0,387.558-141.364Z" transform="translate(-32.295 -29.131)" fill="#c8e7e2"/>
    <path id="Path_65752" data-name="Path 65752" d="M335.437-328.852a4.328,4.328,0,0,0-2.812.721q-1.243.643-2.485,1.288a26.508,26.508,0,0,0-2.459,1.331c-.171.112-.352.228-.532.349.943-1.424,1.887-2.848,2.805-4.288,1.367-2.144,2.688-4.306,3.936-6.521.656-1.165,1.262-2.344,1.837-3.55a10.464,10.464,0,0,0,1.2-3.244.281.281,0,0,0-.422-.241,8.87,8.87,0,0,0-1.826,2.034c-.731.968-1.461,1.947-2.135,2.955q-1.356,2.029-2.7,4.066c.015-.2.023-.395.022-.6-.006-.762-.141-1.525-.19-2.287s-.152-1.53-.245-2.3c-.056-.454-.22-.854-.314-1.3a3.356,3.356,0,0,0-.436-1.045.443.443,0,0,0-.754,0,2.922,2.922,0,0,0-.535,1.045,8.177,8.177,0,0,0-.343,1.3,11.947,11.947,0,0,0-.051,2.477,12.583,12.583,0,0,0,.4,2.62,4.647,4.647,0,0,0,1.133,2.069q-3.579,5.475-7.36,10.816c-.814,1.153-1.651,2.289-2.482,3.43-.037-.408-.084-.8-.111-1.15a29.013,29.013,0,0,1,.022-4.731,33.468,33.468,0,0,1,.76-4.672,41.78,41.78,0,0,0,.7-4.481.377.377,0,0,0-.639-.265,11.636,11.636,0,0,0-2.278,4.136,25.8,25.8,0,0,0-.889,4.967,29.043,29.043,0,0,0,.005,5.046,8.174,8.174,0,0,0,.821,3.366q-6.08,8.208-12.663,16.03c-1.085,1.292-2.2,2.563-3.3,3.837q.324-2.208.582-4.424c.191-1.613.408-3.223.521-4.844a40.857,40.857,0,0,0-.161-5.217.36.36,0,0,0-.7-.1,40.631,40.631,0,0,0-1.465,5c-.3,1.6-.492,3.209-.715,4.818s-.427,3.2-.6,4.815a20.754,20.754,0,0,0-.3,3.139c-1.377,1.438-2.822,2.952-3.3,4.836a.8.8,0,0,0,.978.978c2.157-.749,3.488-2.655,4.953-4.316q2.283-2.585,4.508-5.218,2.009-2.378,3.959-4.8a5.323,5.323,0,0,0,.706-.118c.919-.225,1.827-.551,2.726-.848a49.482,49.482,0,0,0,5.138-2.031,43.759,43.759,0,0,0,4.765-2.51A23.258,23.258,0,0,0,327-310c.19-.191,0-.564-.273-.469a44.864,44.864,0,0,0-4.845,1.869c-1.672.807-3.336,1.629-5.014,2.422q-2.43,1.148-4.874,2.264c-.136.061-.275.119-.412.182.838-1.06,1.683-2.114,2.508-3.184q6.176-8.006,11.834-16.394a5.483,5.483,0,0,0,2.461-.535,27.7,27.7,0,0,0,2.67-1.253q1.3-.643,2.593-1.288a4.145,4.145,0,0,0,2.151-1.834A.518.518,0,0,0,335.437-328.852Z" transform="translate(-28.408 -10.377)" fill="#c8e7e2"/>
    <path id="Path_65753" data-name="Path 65753" d="M297.2-107.254a94.106,94.106,0,0,1,11.509-25.732c5.714-9.057,12.568-16.294,22.543-20.638,5.717-2.49,14.6-5.929,15.162,3.308.449,7.415-7.731,18.758-12.714,23.914,10.813-7.079,20.469-12.741,33.819-12.108,9.463.449,27.071,2.921,27.447,15.107.708,22.985-38.621,20.388-52.785,23.1,12.028-.534,36.17,15.609,26.568,29.616C357.482-54.25,333.1-61.52,320.16-71.033c3.95,7.75,6.345,18.977-5.463,20.247-13.47,1.449-16.49-16.669-18.581-26.3A63.924,63.924,0,0,1,297.2-107.254Z" transform="translate(-28.391 -28.356)" fill="#f4bcbf"/>
    <path id="Path_65754" data-name="Path 65754" d="M299.385-101.788A62.235,62.235,0,0,1,307-118.807c3.78-5.99,8.312-10.777,14.91-13.65,3.781-1.647,9.659-3.921,10.028,2.189.3,4.9-5.113,12.407-8.409,15.817,7.151-4.682,13.538-8.427,22.367-8.008,6.26.3,17.906,1.93,18.154,9.991.469,15.2-25.545,13.485-34.912,15.281,7.955-.353,23.923,10.324,17.572,19.588-7.452,10.869-23.577,6.059-32.137-.232,2.613,5.126,4.2,12.551-3.613,13.392-8.909.958-10.906-11.024-12.289-17.394A42.282,42.282,0,0,1,299.385-101.788Z" transform="translate(-28.68 -30.484)" fill="#f2a2b2"/>
    <path id="Path_65755" data-name="Path 65755" d="M275.315-218.027c-1.737-1.215,4.336-18.264,5.4-21.4,2.709-7.958,8-17.151,16.332-20.282,12.494-4.695,6.727,10.46,5.488,17.062,6.082-7.82,10.794-16.189,18.417-22.884,6.141-5.393,16.284-14.615,25.294-10.762,8.7,3.72,3.6,14.375-.26,20.378-2.765,4.3-7.243,11.715-11.767,14.306,4.958-4.387,13.442-8.5,20.338-10.238,7.47-1.879,27.913-4.669,28.238,8.126.305,12.029-18.238,17.6-27.186,18.977,15.833-.159,15.355,16.112,3.662,22.611-7.781,4.323-16.28,6.017-25,7.131-8.4,1.073-16.91-1.267-25.339-1.685-11.148-.552-19.677-5.956-27.93-12.455C276.21-212.916,275.393-215.441,275.315-218.027Z" transform="translate(-26.485 -16.718)" fill="#f4bcbf"/>
    <path id="Path_65756" data-name="Path 65756" d="M286.191-212.509c-1.146-.8,2.86-12.047,3.564-14.116,1.786-5.25,5.28-11.314,10.773-13.379,8.242-3.1,4.438,6.9,3.621,11.255,4.011-5.158,7.12-10.68,12.148-15.1,4.051-3.558,10.742-9.641,16.687-7.1,5.738,2.454,2.373,9.482-.173,13.442-1.824,2.84-4.778,7.728-7.762,9.437a35.558,35.558,0,0,1,13.415-6.753c4.928-1.239,18.414-3.081,18.629,5.361.2,7.936-12.032,11.612-17.934,12.519,10.444-.106,10.129,10.628,2.415,14.915-5.132,2.852-10.74,3.969-16.492,4.7-5.544.708-11.155-.836-16.715-1.112-7.354-.364-12.981-3.929-18.424-8.215C286.781-209.137,286.242-210.8,286.191-212.509Z" transform="translate(-27.543 -19.189)" fill="#f2a2b2"/>
    <path id="Path_65757" data-name="Path 65757" d="M300.757-340.3a.841.841,0,0,0-.2-.381.854.854,0,0,0-.314-.288l-.268-.113a.847.847,0,0,0-.447-.021.832.832,0,0,0-.417.134l-.228.174a1.132,1.132,0,0,0-.289.5c-.013.1-.026.2-.04.3l0,.013a1.032,1.032,0,0,0,.022.379,1.012,1.012,0,0,0,.26.446,1.009,1.009,0,0,0,.447.26,1,1,0,0,0,.376.022l.015,0a.845.845,0,0,0,.432-.1.837.837,0,0,0,.361-.232l.176-.227a.837.837,0,0,0,.133-.418A.847.847,0,0,0,300.757-340.3Z" transform="translate(-28.753 -10.562)" fill="#fff"/>
    <path id="Path_65758" data-name="Path 65758" d="M310.313-306.4l-.038-.061a2.1,2.1,0,0,0-.758-.771l-.124-.066-.478-.2a1.517,1.517,0,0,0-.8-.036.984.984,0,0,0-.5.137,1.491,1.491,0,0,0-.643.412l-.313.4q-.1.239-.2.476a1.53,1.53,0,0,0-.035.8,1.5,1.5,0,0,0,.237.743l.065.124a2.117,2.117,0,0,0,.771.758l.062.038a2.007,2.007,0,0,0,1.016.275,2,2,0,0,0,1.016-.275l.205-.158a1.51,1.51,0,0,0,.515-.561l0,0a2,2,0,0,0,.275-1.016A2.007,2.007,0,0,0,310.313-306.4Z" transform="translate(-29.508 -13.794)" fill="#fff"/>
    <path id="Path_65759" data-name="Path 65759" d="M330.479-277.1a.624.624,0,0,0-.087-.321.954.954,0,0,0-.264-.41c-.085-.067-.172-.133-.258-.2l-.3-.129a.967.967,0,0,0-.507-.023.947.947,0,0,0-.474.152,2.176,2.176,0,0,0-.377.277,1.114,1.114,0,0,0-.233.318l-.032.066-.059.123-.031.065q-.069.144-.125.293a.891.891,0,0,0-.021.472l.023.163a1.183,1.183,0,0,0,.3.518,1.187,1.187,0,0,0,.523.3,1.2,1.2,0,0,0,.629,0c.1-.037.2-.078.293-.124l.061-.029.128-.061.065-.033a1.12,1.12,0,0,0,.319-.232,2.32,2.32,0,0,0,.277-.378c.043-.1.086-.2.128-.3A.971.971,0,0,0,330.479-277.1Z" transform="translate(-31.559 -16.622)" fill="#fff"/>
    <path id="Path_65760" data-name="Path 65760" d="M370.74-240.725a1.146,1.146,0,0,0-.155-.577,1.139,1.139,0,0,0-.3-.5,1.131,1.131,0,0,0-.41-.41,1.715,1.715,0,0,0-.777-.409l-.044-.009c-.106-.018-.236-.032-.321-.043s-.217-.033-.324-.043l-.087,0-.039,0a3.066,3.066,0,0,0-.642.087l-.564.238a1.746,1.746,0,0,0-.482.372,4.579,4.579,0,0,0-.411.533q-.118.279-.235.558-.042.31-.083.62c.027.208.055.414.083.622a1.762,1.762,0,0,0,.417.793,1.183,1.183,0,0,0,.418.418,1.157,1.157,0,0,0,.516.3,1.144,1.144,0,0,0,.589.159,1.76,1.76,0,0,0,.93-.042c.25-.077.154.061.641-.255l.11-.084.071-.044.464-.357.358-.464.23-.546A1.733,1.733,0,0,0,370.74-240.725Z" transform="translate(-35.236 -20.039)" fill="#fff"/>
    <path id="Path_65761" data-name="Path 65761" d="M357.881-214.933a1.535,1.535,0,0,0-.4-.686l-.314-.243a1.568,1.568,0,0,0-.785-.212,1.172,1.172,0,0,0-.6.135,1.165,1.165,0,0,0-.5.321,1.17,1.17,0,0,0-.322.5,1.169,1.169,0,0,0-.134.6l.055.414a1.554,1.554,0,0,0,.4.686l.314.244a1.553,1.553,0,0,0,.785.211,1.176,1.176,0,0,0,.6-.133,1.172,1.172,0,0,0,.5-.323,1.172,1.172,0,0,0,.323-.5,1.174,1.174,0,0,0,.133-.6C357.918-214.657,357.9-214.794,357.881-214.933Z" transform="translate(-34.173 -22.606)" fill="#fff"/>
    <path id="Path_65762" data-name="Path 65762" d="M333.275-253.358a1.426,1.426,0,0,0-.367-.629,1.066,1.066,0,0,0-.458-.295,1.08,1.08,0,0,0-.549-.123,1.076,1.076,0,0,0-.549.123,1.064,1.064,0,0,0-.459.295,1.424,1.424,0,0,0-.366.629,1.622,1.622,0,0,0-.144.668,1.381,1.381,0,0,0,.187.692,1.373,1.373,0,0,0,.492.492,1.376,1.376,0,0,0,1.385,0l.015-.009.28-.217.216-.279.013-.018.054-.08.1-.151a1.416,1.416,0,0,0,.2-.718C333.308-253.105,333.291-253.232,333.275-253.358Z" transform="translate(-31.818 -18.914)" fill="#fff"/>
    <path id="Path_65763" data-name="Path 65763" d="M389.358-179.526a1.575,1.575,0,0,0-.4-.693,1.168,1.168,0,0,0-.505-.324,1.163,1.163,0,0,0-.605-.136,1.562,1.562,0,0,0-.792.213l-.193.108-.061.025q-.179.137-.356.276l-.275.355a.493.493,0,0,0-.1.228.917.917,0,0,0-.1.249l-.049.179a1.642,1.642,0,0,0,0,.872,1.646,1.646,0,0,0,.422.724,1.64,1.64,0,0,0,.725.422,1.641,1.641,0,0,0,.872,0l.146-.047c.155-.061.321-.125.474-.2l.356-.276c.091-.118.183-.238.276-.355a1.366,1.366,0,0,0,.22-.672,1.528,1.528,0,0,0,.026-.376A5.061,5.061,0,0,0,389.358-179.526Z" transform="translate(-37.162 -26.015)" fill="#fff"/>
    <path id="Path_65764" data-name="Path 65764" d="M383.094-125.725l-.223-.529a1.666,1.666,0,0,0-.569-.621,1.669,1.669,0,0,0-.753-.4l-.086-.03a1.447,1.447,0,0,0-.329-.051,1.682,1.682,0,0,0-.919.042l-.176.052-.525.221a1.653,1.653,0,0,0-.616.567,1.092,1.092,0,0,0-.283.484,1.66,1.66,0,0,0-.19.846c.027.2.052.389.079.585l.221.524a1.669,1.669,0,0,0,.566.617,1.667,1.667,0,0,0,.748.393l.176.052.6.08.021,0,.6-.081.019-.006.1-.033.529-.223a1.681,1.681,0,0,0,.621-.569,1.1,1.1,0,0,0,.284-.488,1.659,1.659,0,0,0,.191-.853Q383.135-125.43,383.094-125.725Z" transform="translate(-36.445 -31.146)" fill="#fff"/>
    <path id="Path_65765" data-name="Path 65765" d="M351.506-105.379c-.042-.1-.083-.2-.124-.3-.066-.083-.13-.167-.194-.25a.934.934,0,0,0-.4-.257.613.613,0,0,0-.312-.085.942.942,0,0,0-.5.023h0a.925.925,0,0,0-.421.221.929.929,0,0,0-.319.347l-.125.3a1.231,1.231,0,0,0,0,.658v0c.042.1.083.2.124.3.065.083.13.167.194.251a.932.932,0,0,0,.4.256.608.608,0,0,0,.312.085.623.623,0,0,0,.331,0,.612.612,0,0,0,.312-.085.606.606,0,0,0,.274-.16.945.945,0,0,0,.32-.347c.041-.1.082-.2.124-.3.015-.109.03-.22.044-.329C351.535-105.16,351.521-105.269,351.506-105.379Z" transform="translate(-33.618 -33.179)" fill="#fff"/>
    <path id="Path_65766" data-name="Path 65766" d="M352.062-68.33a2.127,2.127,0,0,0-.549-.943l-.433-.333A2.122,2.122,0,0,0,350-69.9a1.613,1.613,0,0,0-.823.185,1.582,1.582,0,0,0-.687.441,1.612,1.612,0,0,0-.442.688,1.6,1.6,0,0,0-.183.822c.025.189.05.379.076.568a2.134,2.134,0,0,0,.549.943l.432.333a2.121,2.121,0,0,0,1.078.291,1.6,1.6,0,0,0,.822-.183,1.607,1.607,0,0,0,.688-.441,1.6,1.6,0,0,0,.441-.688,1.6,1.6,0,0,0,.183-.822Q352.1-68.047,352.062-68.33Z" transform="translate(-33.502 -36.683)" fill="#fff"/>
    <path id="Path_65767" data-name="Path 65767" d="M318.947-50.238a1.119,1.119,0,0,0-.154-.566.839.839,0,0,0-.288-.314.842.842,0,0,0-.38-.2,1.156,1.156,0,0,0-.558-.005,1.684,1.684,0,0,0-.85,0,1.668,1.668,0,0,0-1.159,1.16l-.013.084-.014.024a.844.844,0,0,0-.041.526l.045.113a1.436,1.436,0,0,0,.449.868l.336.259.4.166.443.061a1.264,1.264,0,0,0,.639-.143.826.826,0,0,0,.366-.214.828.828,0,0,0,.3-.3.833.833,0,0,0,.213-.366,1.223,1.223,0,0,0,.114-.317l.092-.218.014-.072c.022-.13.042-.263.052-.4Z" transform="translate(-30.382 -38.467)" fill="#fff"/>
    <path id="Path_65768" data-name="Path 65768" d="M154.27-298.641c-2.613-4.782-3.282-10.685-4.574-16.092-1.932-8.084-5.9-15.986-10-23.2-4.8-8.454-12.326-20.892-22.264-23.676-4.593,11.117-9.1,21.079-8.906,33.568.207,13.19,6.2,26.072,17.159,33.681,4.551,3.161,10.791,5.689,16.262,3.853,5.418-1.817,10.2-7.875,7.559-13.609" transform="translate(-10.452 -8.59)" fill="#c8e7e2"/>
    <path id="Path_65769" data-name="Path 65769" d="M131.125-281.575c2.465-5.447-4.454-20.336-6.517-25.568a84.866,84.866,0,0,0-17.976-27.441c-10.773-11.341-24.7-25.364-41.044-27.566,2.856,6.152,2.248,14.727,3.626,21.483,2.451,12.024,7.649,22.806,14.5,32.978,8.547,12.7,22.3,29.014,38.659,29.781C126.048-277.737,130.551-278.565,131.125-281.575Z" transform="translate(-6.317 -8.537)" fill="#9cd7ce"/>
    <path id="Path_65770" data-name="Path 65770" d="M138.109-251.382c.084-10.707-8.5-20.622-16.587-26.665-13.5-10.085-28.358-11.51-44.522-12.536,4.4,19.5,15.437,42.015,33.952,51.9,7.194,3.842,12.685,2.527,18.976-2.046C133.658-243.436,138.627-248.811,138.109-251.382Z" transform="translate(-7.416 -15.43)" fill="#c8e7e2"/>
    <path id="Path_65771" data-name="Path 65771" d="M96.044-151.593c8.441-4.644-22.909-25.2-26.385-26.834-14.645-6.888-31.041-9.531-46.789-6.269,14.783,12.633,26.757,28.4,45.781,35.568,5.926,2.234,11.876,2.285,18.057,1.588C89.571-147.863,96.526-148.847,96.044-151.593Z" transform="translate(-2.203 -25.494)" fill="#c8e7e2"/>
    <path id="Path_65772" data-name="Path 65772" d="M100.22-131.984c-2.077-4.546-8.276-9.392-11.107-11.862a61.574,61.574,0,0,0-20.078-11.795c-18.133-6.415-36.16-3.711-54.029,2.517,7.061,4.4,12.66,11.448,19.837,16.1,11.345,7.361,25.1,11.45,38.34,13.9,8.035,1.49,15.275,2.334,23.028-.776C101.127-125.868,101.649-128.856,100.22-131.984Z" transform="translate(-1.445 -28.072)" fill="#9cd7ce"/>
    <path id="Path_65773" data-name="Path 65773" d="M113.976-164.938c3.925-2.885-11.616-19.372-14.257-21.708-11.413-10.1-25.134-17.542-40.621-17.5,2.034,4.039,1.473,9.768,2.306,14.188,1.144,6.068,3.389,12.542,7.395,17.362,6.075,7.307,15.321,12.052,24.332,14.352C102.022-155.979,109.688-160.869,113.976-164.938Z" transform="translate(-5.692 -23.754)" fill="#9cd7ce"/>
    <path id="Path_65774" data-name="Path 65774" d="M115.758-331.1a8.466,8.466,0,0,1,3.434,1.107,32.685,32.685,0,0,1,3.078,1.921q1.483,1.042,2.914,2.156c.232.18.49.376.746.587-.7-3.261-1.384-6.526-2.026-9.8-.434-2.208-.85-4.416-1.17-6.643-.165-1.151-.328-2.3-.5-3.453a12.224,12.224,0,0,1,.106-3.486.292.292,0,0,1,.539-.146,11.946,11.946,0,0,1,1.338,2.452c.314.965.562,1.958.844,2.933.54,1.872,1.034,3.746,1.5,5.634.242-.581.488-1.16.708-1.748.362-.965.695-1.938,1.075-2.9a9.423,9.423,0,0,1,.661-1.528,2.082,2.082,0,0,1,.5-.554c.117-.085.3-.147.375-.2a.21.21,0,0,1,.286.075c.039.094.164.228.223.361a2.009,2.009,0,0,1,.146.735,7.5,7.5,0,0,1-.26,1.647,27.633,27.633,0,0,1-.93,3.149,21.185,21.185,0,0,1-1.211,3.148,10.524,10.524,0,0,1-.774,1.2c.711,3.06,1.394,6.127,2.095,9.19q.942,4.121,1.89,8.241c.505-1.168,1.024-2.325,1.592-3.47.726-1.466,1.405-2.951,2.087-4.439.549-1.2,1.124-2.976,2.368-3.62a.181.181,0,0,1,.26.107c.436,1.328-.4,3.023-.852,4.263-.557,1.54-1.113,3.078-1.623,4.634s-1.074,3.09-1.69,4.616a11.871,11.871,0,0,1-1.14,2.275q1.309,5.715,2.622,11.43c1.027,4.443,2.4,8.9,1.642,13.475-.058.348-.511.316-.676.089-2.407-3.33-3.175-7.288-4.08-11.227Q130.466-304.938,129.1-311q-1.227-5.441-2.428-10.894c-1.241.111-2.332-.815-3.248-1.557q-1.342-1.086-2.738-2.1c-.957-.695-1.9-1.4-2.854-2.107a10.382,10.382,0,0,1-2.572-2.565A.583.583,0,0,1,115.758-331.1Z" transform="translate(-11.093 -9.805)" fill="#9cd7ce"/>
    <path id="Path_65775" data-name="Path 65775" d="M82.03-276.262c.136-.048.236-.267.361-.356a3.534,3.534,0,0,1,.351-.191,3.745,3.745,0,0,1,.84-.388,9.951,9.951,0,0,1,1.816-.279c.564-.035,1.176-.117,1.781-.136-.58-.508-1.167-1.009-1.744-1.521-1.306-1.158-3.167-2.538-3.355-4.381a.421.421,0,0,1,.418-.418c1.618-.047,2.942,1.29,4.144,2.236,1.462,1.149,2.868,2.371,4.312,3.542q1.637,1.33,3.281,2.653c-.135-.689-.258-1.371-.4-2.013-.246-1.1-.433-2.209-.593-3.327a6.569,6.569,0,0,1,.174-3.38.212.212,0,0,1,.349-.093,6.612,6.612,0,0,1,1.639,2.877c.38,1.1.69,2.225.965,3.358s.585,2.258.827,3.4c.126.589.214,1.193.3,1.788.669.531,1.334,1.067,2.007,1.6q6.593,5.182,13.421,10.058c-.467-1.314-.877-2.651-1.274-3.983-.521-1.751-.986-3.51-1.344-5.3-.179-.889-.369-1.785-.484-2.685a5.393,5.393,0,0,1-.007-2.547.783.783,0,0,1,1.29-.341,5.54,5.54,0,0,1,1.018,2.238c.283.866.505,1.75.768,2.623.525,1.746,1.048,3.495,1.619,5.225s1.229,3.435,1.859,5.148a11.411,11.411,0,0,1,.756,2.591c1.622,1.127,3.261,2.229,4.871,3.377a28.827,28.827,0,0,1,2.454,1.844A4.943,4.943,0,0,1,126-250.791a.5.5,0,0,1-.481.632,4.316,4.316,0,0,1-2.283-.394,18.215,18.215,0,0,1-2.5-1.416c-1.51-.967-2.982-1.986-4.452-3.016q-4.485-3.141-8.881-6.411c-.3-.22-.588-.444-.884-.664a9.8,9.8,0,0,1-1.549.208c-1.495.109-2.989.166-4.48.318s-2.964.406-4.449.593c-1.325.166-3.121.721-4.29-.107a.361.361,0,0,1-.127-.483c.688-1.258,2.51-1.486,3.8-1.773,1.468-.328,2.981-.511,4.473-.7,1.191-.148,2.386-.259,3.581-.349-4.562-3.465-9.061-7.023-13.406-10.749-.3-.256-.59-.518-.888-.774a5.447,5.447,0,0,1-.918.31,13.634,13.634,0,0,1-2.193.27,15.5,15.5,0,0,1-2.069.051,3.526,3.526,0,0,1-1.079-.245c-.13-.048-.27-.085-.395-.145-.178-.082-.3-.285-.49-.322C81.862-275.985,81.893-276.214,82.03-276.262Z" transform="translate(-7.889 -16.028)" fill="#9cd7ce"/>
    <path id="Path_65776" data-name="Path 65776" d="M40.593-179.661c1.838.173,3.46,1.776,4.943,2.777.369.249.745.486,1.117.73l-.007-.061c-.016-.108-.032-.217-.049-.325-.043-.274-.09-.545-.143-.817-.11-.573-.155-1.134-.253-1.7a.744.744,0,0,1,1.352-.57c.157.224.3.439.464.646a4.318,4.318,0,0,1,.472.827c.275.568.533,1.148.763,1.737a10.037,10.037,0,0,1,.41,1.658,5.5,5.5,0,0,1,.1.559c.2.12.4.246.6.365A117.069,117.069,0,0,0,60.865-168.5c.107.049.213.095.319.145-.476-.656-.944-1.318-1.383-2a26.636,26.636,0,0,1-1.808-3.257,8.281,8.281,0,0,1-.682-1.975,8.666,8.666,0,0,1-.155-1.03,3.963,3.963,0,0,1,.168-.936.633.633,0,0,1,.922-.374l.235.136a2.881,2.881,0,0,1,1.106.878,10,10,0,0,1,1.183,1.555c.655,1.055,1.29,2.122,1.941,3.178.633,1.026,1.265,2.049,1.947,3.044a6.355,6.355,0,0,1,1.265,2.884c5.616,2.394,11.335,4.512,17.076,6.618q3.131,1.15,6.278,2.255c2.026.716,4.256,1.36,5.847,2.878a.618.618,0,0,1-.433,1.042,14.137,14.137,0,0,1-5.838-1.03q-2.832-.889-5.656-1.8c-.547-.177-1.09-.363-1.634-.547a10.979,10.979,0,0,1-2.02.6c-1.263.289-2.526.6-3.8.822-2.377.418-5.145,1.319-7.436.219a.42.42,0,0,1-.085-.656,6.254,6.254,0,0,1,3.251-1.489c1.283-.215,2.572-.406,3.858-.607.723-.114,1.45-.206,2.177-.294q-2.844-1.026-5.663-2.125c-3.752-1.457-7.468-3-11.1-4.75-2.333-1.122-4.584-2.371-6.816-3.665l-.2.166a4.768,4.768,0,0,1-1.021.562,16.341,16.341,0,0,1-1.821.544,6.871,6.871,0,0,1-2.1.248,2.262,2.262,0,0,1-1.146-.316c-.314-.2-.654-.422-.664-.841-.015-.747,1.039-1.171,1.6-1.328a12.062,12.062,0,0,1,2.03-.314l.354-.05c.167-.027.335-.055.5-.085l.047-.01c-.4-.238-.8-.473-1.2-.712-.672-.4-1.336-.822-2-1.239a.944.944,0,0,1-.366-.209l-.041-.043c-1.111-.706-2.211-1.426-3.292-2.173-1.583-1.1-3.967-2.341-4.653-4.232A.663.663,0,0,1,40.593-179.661Z" transform="translate(-3.845 -26.082)" fill="#9cd7ce"/>
    <path id="Path_65777" data-name="Path 65777" d="M75.122-184.828q-3.657-4.008-7.046-8.248c-.644-.8.427-1.95,1.159-1.159q3.123,3.375,6.416,6.6c-.027-.107-.057-.212-.082-.32a18.968,18.968,0,0,1-.474-2.137c-.076-.707-.034-1.446-.059-2.157,0-.155.192-.18.27-.073.416.571.9,1.121,1.278,1.715a16.656,16.656,0,0,1,.91,1.93c.323.692.607,1.394.886,2.1a5.674,5.674,0,0,1,.578,2.123q5.232,4.911,10.81,9.435c-.089-.274-.18-.549-.261-.826-.342-1.164-.655-2.337-.982-3.505s-.621-2.35-.847-3.542c-.111-.59-.215-1.189-.284-1.787a5.252,5.252,0,0,1,.165-1.562.276.276,0,0,1,.457-.12,5.535,5.535,0,0,1,1.16,1.458c.273.542.524,1.1.757,1.66.52,1.25,1,2.5,1.44,3.783.426,1.231.866,2.457,1.254,3.7.314,1,.585,2.09-.071,2.951,1.619,1.264,3.25,2.512,4.9,3.723,2.774,2.031,6.1,3.873,8.149,6.7.384.532-.249,1.123-.781,1.016-3.048-.613-5.733-2.735-8.2-4.518-2.59-1.873-5.141-3.809-7.6-5.856-1.912-1.591-3.789-3.235-5.638-4.911a8.188,8.188,0,0,1-1.73.221c-.535,0-1.081.068-1.611.057-.5-.009-1-.1-1.5-.147-1.086-.108-2.17-.207-3.249-.383-.892-.146-2.273-.361-2.745-1.243a.706.706,0,0,1,.106-.819c.627-.766,2.117-.7,3.01-.679,1,.027,2,.132,2.992.221.525.048,1.054.08,1.576.151.145.021.286.058.429.089C78.77-181.009,76.9-182.879,75.122-184.828Z" transform="translate(-6.537 -24.683)" fill="#c8e7e2"/>
    <path id="Path_65778" data-name="Path 65778" d="M35.559-148.824c2-.025,3.955-.042,5.959.1,1.142.08,2.285.2,3.425.323-.1-.092-.2-.177-.3-.273q-.966-.975-1.958-1.925c-.645-.616-1.3-1.222-1.959-1.824a4.448,4.448,0,0,1-.445-.45c-.1-.12-.2-.242-.291-.364a3.31,3.31,0,0,1-.335-.59c.089.176-.025-.012-.073-.081l-.191-.275a1.441,1.441,0,0,1-.29-.951.872.872,0,0,1,.629-.825,1.552,1.552,0,0,1,1.106.143c.1.052.205.107.307.16.027.014.286.149.117.078a4.42,4.42,0,0,1,.753.346,5.846,5.846,0,0,1,.746.577c.676.617,1.337,1.251,1.993,1.89q.957.934,1.89,1.894c.331.34.634.69.931,1.061.133.165.266.332.4.5a2.315,2.315,0,0,1,.478,1.016,1.21,1.21,0,0,1,.03.3c2.568.3,5.138.631,7.7,1.017.08-.029.158-.064.239-.09a.874.874,0,0,1,.981.282c.666.1,1.333.209,2,.322a82.074,82.074,0,0,1,10.361,2.446c-.173-.176-.341-.354-.516-.525q-1.887-1.86-3.9-3.585c-1.3-1.119-2.648-2.186-3.973-3.278a15.409,15.409,0,0,1-3.5-3.844c-.227-.368.147-.716.509-.662a11.175,11.175,0,0,1,4.767,1.978,49.29,49.29,0,0,1,4.368,3.439q2,1.738,3.873,3.608c.624.622,1.25,1.248,1.843,1.9a6.581,6.581,0,0,1,1.678,2.4,1.218,1.218,0,0,1,.033.375c1.809.71,3.593,1.493,5.342,2.364a42.5,42.5,0,0,1,5.072,2.873,13.433,13.433,0,0,1,2.285,1.9,25.868,25.868,0,0,1,1.74,2.329c.151.205-.1.549-.345.448a38.346,38.346,0,0,1-4.656-1.956c-1.48-.85-2.937-1.74-4.45-2.534a70.26,70.26,0,0,0-9.592-4.089,113.572,113.572,0,0,0-13.676-3.817,18.272,18.272,0,0,1-2.012,1.383q-1.347.832-2.721,1.616t-2.821,1.436a5.87,5.87,0,0,1-1.821.521,5.009,5.009,0,0,1-1.432-.172.356.356,0,0,1-.211-.52,4.827,4.827,0,0,1,.839-1.25,7.654,7.654,0,0,1,1.26-.918c.935-.551,1.927-1.027,2.893-1.524.806-.415,1.6-.848,2.4-1.287-1.469-.268-2.942-.517-4.421-.732-2.228-.324-4.462-.587-6.695-.882-2.183-.286-4.292-.735-6.437-1.2C35.136-148.3,35.221-148.819,35.559-148.824Z" transform="translate(-3.396 -28.391)" fill="#c8e7e2"/>
    <path id="Path_65779" data-name="Path 65779" d="M77.941-333.409a4.464,4.464,0,0,1,2.9.744q1.282.663,2.563,1.328a26.969,26.969,0,0,1,2.536,1.373c.177.117.362.235.55.359-.973-1.469-1.947-2.936-2.894-4.422-1.41-2.212-2.773-4.441-4.059-6.725-.677-1.2-1.3-2.417-1.9-3.661a10.791,10.791,0,0,1-1.242-3.345.291.291,0,0,1,.436-.249,9.144,9.144,0,0,1,1.883,2.1c.755,1,1.506,2.007,2.2,3.048q1.4,2.093,2.781,4.193c-.014-.2-.024-.408-.023-.618.008-.785.146-1.573.2-2.359s.156-1.579.253-2.372c.057-.469.227-.882.324-1.341a3.472,3.472,0,0,1,.449-1.076.457.457,0,0,1,.778,0,3.044,3.044,0,0,1,.55,1.076,8.5,8.5,0,0,1,.355,1.341,12.376,12.376,0,0,1,.052,2.554,13.066,13.066,0,0,1-.413,2.7,4.8,4.8,0,0,1-1.168,2.133q3.69,5.647,7.589,11.155c.84,1.189,1.7,2.361,2.559,3.538.039-.42.087-.827.115-1.186A30.04,30.04,0,0,0,95.3-328a34.753,34.753,0,0,0-.784-4.818,42.517,42.517,0,0,1-.726-4.621.389.389,0,0,1,.659-.273,12,12,0,0,1,2.349,4.265,26.636,26.636,0,0,1,.918,5.123,30.041,30.041,0,0,1-.005,5.2,8.452,8.452,0,0,1-.847,3.471q6.27,8.467,13.06,16.532c1.119,1.332,2.265,2.642,3.405,3.958q-.336-2.279-.6-4.563c-.2-1.664-.419-3.325-.535-5a41.772,41.772,0,0,1,.165-5.381.371.371,0,0,1,.726-.1,41.768,41.768,0,0,1,1.51,5.154c.308,1.646.509,3.309.737,4.969s.441,3.3.615,4.965a21.454,21.454,0,0,1,.306,3.237c1.421,1.483,2.911,3.045,3.4,4.987a.827.827,0,0,1-1.009,1.008c-2.225-.772-3.6-2.737-5.109-4.45q-2.353-2.666-4.649-5.382-2.071-2.451-4.084-4.953a5.464,5.464,0,0,1-.727-.121c-.949-.233-1.885-.568-2.812-.874a51.467,51.467,0,0,1-5.3-2.094,45.136,45.136,0,0,1-4.914-2.589,23.971,23.971,0,0,1-4.406-3.625c-.2-.2,0-.582.281-.483a46.3,46.3,0,0,1,5,1.928c1.723.831,3.439,1.68,5.17,2.5q2.506,1.183,5.027,2.333c.14.064.283.125.425.188-.864-1.093-1.735-2.18-2.586-3.282q-6.369-8.258-12.2-16.909a5.634,5.634,0,0,1-2.538-.55,28.672,28.672,0,0,1-2.753-1.293q-1.337-.663-2.674-1.327a4.291,4.291,0,0,1-2.219-1.892A.535.535,0,0,1,77.941-333.409Z" transform="translate(-7.358 -9.895)" fill="#c8e7e2"/>
    <path id="Path_65780" data-name="Path 65780" d="M110.977-104.872a97.055,97.055,0,0,0-11.87-26.538c-5.893-9.34-12.961-16.8-23.25-21.284-5.895-2.567-15.059-6.114-15.637,3.412-.463,7.647,7.973,19.345,13.113,24.664-11.152-7.3-21.109-13.14-34.879-12.486-9.759.463-27.919,3.011-28.306,15.58C9.418-97.82,49.979-100.5,64.587-97.7c-12.4-.552-37.3,16.1-27.4,30.543,11.619,16.946,36.764,9.448,50.111-.362-4.074,7.992-6.544,19.57,5.633,20.881,13.892,1.495,17.006-17.19,19.162-27.123A65.913,65.913,0,0,0,110.977-104.872Z" transform="translate(-0.976 -28.437)" fill="#f4bcbf"/>
    <path id="Path_65781" data-name="Path 65781" d="M112.451-99.234a64.171,64.171,0,0,0-7.851-17.552c-3.9-6.178-8.573-11.115-15.377-14.077-3.9-1.7-9.96-4.045-10.342,2.257-.307,5.058,5.273,12.8,8.672,16.313-7.375-4.828-13.961-8.691-23.068-8.259-6.455.306-18.467,1.992-18.723,10.3C45.279-94.57,72.107-96.342,81.769-94.489c-8.2-.365-24.673,10.647-18.123,20.2,7.685,11.209,24.316,6.25,33.143-.239-2.694,5.286-4.327,12.944,3.727,13.81,9.188.989,11.247-11.369,12.673-17.939A43.608,43.608,0,0,0,112.451-99.234Z" transform="translate(-4.407 -30.632)" fill="#f2a2b2"/>
    <path id="Path_65782" data-name="Path 65782" d="M132.709-219.114c1.791-1.251-4.472-18.835-5.572-22.069-2.794-8.207-8.255-17.689-16.843-20.916-12.885-4.843-6.939,10.787-5.661,17.6-6.272-8.065-11.131-16.7-18.993-23.6-6.334-5.562-16.793-15.072-26.088-11.1-8.971,3.835-3.71,14.824.269,21.016,2.852,4.439,7.47,12.082,12.136,14.754-5.113-4.525-13.863-8.769-20.975-10.557-7.7-1.938-28.788-4.816-29.122,8.38C21.547-233.2,40.67-227.457,49.9-226.039c-16.328-.164-15.834,16.615-3.775,23.319,8.024,4.459,16.79,6.2,25.785,7.354,8.665,1.106,17.439-1.307,26.13-1.738,11.5-.57,20.294-6.143,28.8-12.845C131.787-213.842,132.629-216.446,132.709-219.114Z" transform="translate(-2.105 -16.435)" fill="#f4bcbf"/>
    <path id="Path_65783" data-name="Path 65783" d="M135.8-203.555c1.182-.826-2.95-12.426-3.676-14.558-1.843-5.414-5.445-11.668-11.11-13.8-8.5-3.195-4.577,7.117-3.734,11.608-4.137-5.32-7.342-11.013-12.53-15.57-4.178-3.669-11.077-9.942-17.209-7.321-5.917,2.53-2.447,9.779.178,13.864,1.881,2.928,4.927,7.97,8,9.732a36.689,36.689,0,0,0-13.836-6.965c-5.082-1.279-18.991-3.176-19.212,5.529-.207,8.184,12.409,11.975,18.495,12.911-10.771-.11-10.446,10.96-2.491,15.382,5.293,2.942,11.076,4.094,17.01,4.851,5.716.731,11.5-.861,17.237-1.145,7.585-.376,13.387-4.054,19-8.474C135.195-200.077,135.751-201.8,135.8-203.555Z" transform="translate(-6.036 -19.934)" fill="#f2a2b2"/>
    <path id="Path_65784" data-name="Path 65784" d="M125.65-331.267a1.689,1.689,0,0,0-.436-.746q-.171-.133-.343-.265a1.687,1.687,0,0,0-.854-.231,1.265,1.265,0,0,0-.652.146,1.262,1.262,0,0,0-.544.35,1.265,1.265,0,0,0-.35.544,1.272,1.272,0,0,0-.145.652c.02.15.04.3.061.45a1.7,1.7,0,0,0,.435.746l.342.264a1.677,1.677,0,0,0,.853.231,1.277,1.277,0,0,0,.652-.145,1.265,1.265,0,0,0,.544-.35,1.267,1.267,0,0,0,.35-.544,1.268,1.268,0,0,0,.146-.652Z" transform="translate(-11.781 -11.392)" fill="#fff"/>
    <path id="Path_65785" data-name="Path 65785" d="M91.534-328.236a1.488,1.488,0,0,0,0,2.975A1.488,1.488,0,0,0,91.534-328.236Z" transform="translate(-8.677 -11.804)" fill="#fff"/>
    <path id="Path_65786" data-name="Path 65786" d="M86.47-263.66a2.214,2.214,0,0,0-.568-.976l-.448-.345a2.194,2.194,0,0,0-1.116-.3,1.665,1.665,0,0,0-.852.19,1.662,1.662,0,0,0-.712.457,1.673,1.673,0,0,0-.457.711,1.669,1.669,0,0,0-.19.853l.079.587a2.2,2.2,0,0,0,.568.976l.448.346a2.19,2.19,0,0,0,1.116.3,1.666,1.666,0,0,0,.852-.191,1.654,1.654,0,0,0,.712-.457,1.662,1.662,0,0,0,.457-.711,1.665,1.665,0,0,0,.19-.852Z" transform="translate(-7.909 -17.866)" fill="#fff"/>
    <path id="Path_65787" data-name="Path 65787" d="M102.912-231.505a1.176,1.176,0,0,0-2.022,0,1.575,1.575,0,0,0-.058,1.562,1.248,1.248,0,0,0,2.138,0A1.567,1.567,0,0,0,102.912-231.505Z" transform="translate(-9.693 -21.064)" fill="#fff"/>
    <path id="Path_65788" data-name="Path 65788" d="M57.34-244.378a.948.948,0,0,0,0,1.894A.948.948,0,0,0,57.34-244.378Z" transform="translate(-5.434 -19.88)" fill="#fff"/>
    <path id="Path_65789" data-name="Path 65789" d="M46.02-145.162a1.567,1.567,0,0,0-.25-.783,2.111,2.111,0,0,0-.755-.755,2.085,2.085,0,0,0-.545-.219l-.158-.043a1.007,1.007,0,0,0-.348-.07,1.5,1.5,0,0,0-.323-.029l.02,0-.025,0a1.527,1.527,0,0,0-.452.06l-.092.012a1.475,1.475,0,0,0-.664.35.985.985,0,0,0-.35.351,1.457,1.457,0,0,0-.349.663c-.026.181-.057.368-.074.55l0,.042a.872.872,0,0,0,.036.277,1.02,1.02,0,0,0,.139.515,1.079,1.079,0,0,0,.271.461l.2.25.08.075c.147.12.3.247.461.355l.054.033a2.089,2.089,0,0,0,1.062.288,2.092,2.092,0,0,0,1.063-.288l.426-.329a2.1,2.1,0,0,0,.541-.928A1.6,1.6,0,0,0,46.02-145.162Z" transform="translate(-4.011 -29.252)" fill="#fff"/>
    <path id="Path_65790" data-name="Path 65790" d="M42.874-179.178a.892.892,0,0,0,0,1.784A.893.893,0,0,0,42.874-179.178Z" transform="translate(-4.046 -26.159)" fill="#fff"/>
    <path id="Path_65791" data-name="Path 65791" d="M79.095-123.241a1.857,1.857,0,0,0-.477-.818l-.376-.29a1.841,1.841,0,0,0-.936-.254,1.394,1.394,0,0,0-.714.16,1.388,1.388,0,0,0-.6.384,1.385,1.385,0,0,0-.384.6,1.408,1.408,0,0,0-.16.715c.023.164.044.328.067.493a1.848,1.848,0,0,0,.477.818l.375.291a1.849,1.849,0,0,0,.936.253,1.39,1.39,0,0,0,.715-.16,1.4,1.4,0,0,0,.6-.384,1.389,1.389,0,0,0,.383-.6,1.4,1.4,0,0,0,.16-.715Q79.127-122.995,79.095-123.241Z" transform="translate(-7.266 -31.415)" fill="#fff"/>
    <path id="Path_65792" data-name="Path 65792" d="M54.819-118.858a1.014,1.014,0,0,0-.363-.363,1.009,1.009,0,0,0-.511-.139,1,1,0,0,0-.416.1l-.022,0-.012,0-.268.114a1.123,1.123,0,0,0-.4.4l-.011.015-.042.054a.812.812,0,0,0-.129.406.548.548,0,0,0,0,.291.818.818,0,0,0,.129.407l.171.221.221.171a.822.822,0,0,0,.407.13.831.831,0,0,0,.436-.02l.083-.023a.868.868,0,0,0,.386-.2.819.819,0,0,0,.291-.319,2.01,2.01,0,0,0,.119-.283l.013-.035.018-.074c.015-.1.029-.2.04-.294v-.052A1.009,1.009,0,0,0,54.819-118.858Z" transform="translate(-5.068 -31.92)" fill="#fff"/>
    <path id="Path_65793" data-name="Path 65793" d="M33.728-103.711a1.57,1.57,0,0,0-.18-.805,1.569,1.569,0,0,0-.432-.672,1.555,1.555,0,0,0-.672-.432,1.56,1.56,0,0,0-.805-.18l-.555.074a2.089,2.089,0,0,0-.922.538l-.327.423a2.077,2.077,0,0,0-.285,1.055l-.016.142a1.6,1.6,0,0,0,.182.811,1.581,1.581,0,0,0,.435.677,1.582,1.582,0,0,0,.678.436,1.594,1.594,0,0,0,.811.181l.56-.075a2.1,2.1,0,0,0,.928-.542q.165-.211.329-.425a2.1,2.1,0,0,0,.288-1.063Z" transform="translate(-2.844 -33.226)" fill="#fff"/>
    <path id="Path_65794" data-name="Path 65794" d="M62.388-67.457a5.342,5.342,0,0,0-.4-.511l-.451-.348-.524-.221-.579-.079-.234.031.219-.029-.044,0a1.753,1.753,0,0,0-.9.2,1.746,1.746,0,0,0-.751.482,2.337,2.337,0,0,0-.6,1.029,1.758,1.758,0,0,0-.042.929,1.726,1.726,0,0,0,.277.868,2.34,2.34,0,0,0,.836.837l.558.235a2.347,2.347,0,0,0,1.24,0,2.331,2.331,0,0,0,1.028-.6l.365-.472a2.329,2.329,0,0,0,.318-1.177A2.327,2.327,0,0,0,62.388-67.457Z" transform="translate(-5.59 -36.807)" fill="#fff"/>
    <path id="Path_65795" data-name="Path 65795" d="M84.567-61.775a1.284,1.284,0,0,0-.33-.567l-.26-.2a1.281,1.281,0,0,0-.648-.174.957.957,0,0,0-.493.11.964.964,0,0,0-.414.266.954.954,0,0,0-.265.413.97.97,0,0,0-.111.494l.046.342a1.294,1.294,0,0,0,.33.567l.26.2a1.281,1.281,0,0,0,.647.175.964.964,0,0,0,.5-.111.965.965,0,0,0,.413-.265.984.984,0,0,0,.266-.413.974.974,0,0,0,.11-.5Z" transform="translate(-7.902 -37.375)" fill="#fff"/>
    <path id="Path_65796" data-name="Path 65796" d="M112.8-65.343a2.322,2.322,0,0,0-.6-1.027c-.156-.121-.314-.243-.471-.363a2.3,2.3,0,0,0-1.174-.318,1.75,1.75,0,0,0-.9.2,1.735,1.735,0,0,0-.748.481,1.74,1.74,0,0,0-.481.748,1.75,1.75,0,0,0-.2.9c.028.206.055.412.083.619a2.332,2.332,0,0,0,.6,1.027l.471.363a2.326,2.326,0,0,0,1.174.318,1.768,1.768,0,0,0,.9-.2,1.752,1.752,0,0,0,.748-.481,1.743,1.743,0,0,0,.481-.749,1.748,1.748,0,0,0,.2-.9C112.856-64.931,112.829-65.137,112.8-65.343Z" transform="translate(-10.423 -36.958)" fill="#fff"/>
    <path id="Path_65797" data-name="Path 65797" d="M128.9-273.221a1.534,1.534,0,0,0-.244-.765,5.72,5.72,0,0,0-.358-.462l-.053-.053a4.235,4.235,0,0,0-.447-.347l-.061-.039c-.089-.049-.2-.086-.283-.123s-.184-.084-.279-.115l-.159-.033a3.5,3.5,0,0,0-.59-.068,3.826,3.826,0,0,0-.562.069l-.16.039-.08.028a1.7,1.7,0,0,0-.63.365l-.052.069-.024.011a2.734,2.734,0,0,0-.325.239l-.106.095a1.554,1.554,0,0,0-.375.646,2.1,2.1,0,0,0-.055.358v.155a1.026,1.026,0,0,0,.117.431.767.767,0,0,0,.01.323,1.517,1.517,0,0,0,.813.99,2.724,2.724,0,0,0,.879.249l.459.193a1.543,1.543,0,0,0,.82.037,1.033,1.033,0,0,0,.519-.14,1.534,1.534,0,0,0,.661-.426l.322-.416.207-.491A1.562,1.562,0,0,0,128.9-273.221Z" transform="translate(-11.947 -16.909)" fill="#fff"/>
    <path id="Path_65798" data-name="Path 65798" d="M303.9-404.807a3.678,3.678,0,0,0-2.51-2.454c-.082-.032-.165-.069-.246-.095a3.956,3.956,0,0,0-2.063.02c-.218.051-.433.12-.648.181-.487.139-.959.312-1.435.483-.345.125-.682.261-1.022.394-.032-.3-.069-.606-.127-.908a5.1,5.1,0,0,0-.238-.839,3.588,3.588,0,0,0-.824-1.459,9.068,9.068,0,0,0-.815-.634,2.7,2.7,0,0,0-2.766,0,2.808,2.808,0,0,0-1.337,2.257l.07-.526c-.028.2-.061.385-.087.582v.039l0,.014-.01.108.013-.089a4.49,4.49,0,0,0,.072,1.212c-.035-.26-.07-.521-.1-.781.111.986-.177,1.966-.113,2.954a5.988,5.988,0,0,0,2.5,4.856c1.687,1.122,3.8.836,5.646.327,1.765-.486,4.174-.9,5.315-2.444a3.237,3.237,0,0,0,.559-.887A3.414,3.414,0,0,0,303.9-404.807Z" transform="translate(-27.9 -3.881)" fill="#f2a2b2"/>
    <path id="Path_65799" data-name="Path 65799" d="M380.482-296.419A3.54,3.54,0,0,0,376.6-298a5.821,5.821,0,0,0-1.169.473c-.133-.309-.273-.615-.434-.911a5.524,5.524,0,0,0-1.261-1.778l-.28-.285a2.34,2.34,0,0,0-2.551-.483,2.339,2.339,0,0,0-1.435,2.134l0,.221a6.251,6.251,0,0,0,.3,2.4c.1.5.237.986.369,1.478q.4,1.509.7,3.042a3.156,3.156,0,0,0,1.453,1.889,3.132,3.132,0,0,0,2.436.319,18.93,18.93,0,0,0,2.737-1.1,9.7,9.7,0,0,0,2.485-1.648,3.437,3.437,0,0,0,.946-1.975A3.291,3.291,0,0,0,380.482-296.419Z" transform="translate(-35.578 -14.41)" fill="#f2a2b2"/>
    <path id="Path_65800" data-name="Path 65800" d="M400.821-78.627a6.648,6.648,0,0,0-2.685-3.81c-.094-.076-.192-.149-.287-.225.1-.084.2-.162.295-.251.128-.124.266-.244.384-.376a4.969,4.969,0,0,0,.9-1.584c-.107.255-.214.509-.321.763l.2-.461a2.883,2.883,0,0,0,.4-1.468,2.883,2.883,0,0,0-.4-1.468,2.873,2.873,0,0,0-2.512-1.44c-.2.014-.392.026-.589.042a5.3,5.3,0,0,0-2.063.655,10.921,10.921,0,0,0-1.29.835,9.663,9.663,0,0,0-3.073,2.741,4.433,4.433,0,0,0-.5,3.273,4.433,4.433,0,0,0,1.667,2.445c.68.526,1.438.938,2.144,1.431a14.153,14.153,0,0,1,1.084.985,8.229,8.229,0,0,0,.686.6,7.122,7.122,0,0,0,.926.714,10.279,10.279,0,0,0,1.155.478,3.091,3.091,0,0,0,3.071-.811A3.3,3.3,0,0,0,400.821-78.627Z" transform="translate(-37.479 -34.848)" fill="#f2a2b2"/>
    <path id="Path_65801" data-name="Path 65801" d="M11.472-91.351a7.807,7.807,0,0,0-2.937,3.234c-.181.311-.344.617-.514.924-.505-.292-1.009-.588-1.5-.9-.59-.381-1.2-.723-1.8-1.08a10.035,10.035,0,0,0-1-.56,5.4,5.4,0,0,0-1.749-.442,1.884,1.884,0,0,0-1.568.787,2.073,2.073,0,0,0-.358,1.741,5.6,5.6,0,0,0,1.485,2.61,13.5,13.5,0,0,0,1.526,1.607c.555.486,1.134.938,1.705,1.4.757.615,1.447,1.319,2.25,1.876a5.24,5.24,0,0,0,4.186.821,5.941,5.941,0,0,0,3.385-2.7c1.214-1.8,2.559-3.83,2.552-6.064A3.8,3.8,0,0,0,11.472-91.351Z" transform="translate(0 -34.572)" fill="#f2a2b2"/>
    <path id="Path_65802" data-name="Path 65802" d="M57.872-307.93a3.593,3.593,0,0,0-2.352-2.2,3.794,3.794,0,0,0-2.863.442,4.671,4.671,0,0,0-1.852,2.255,21.8,21.8,0,0,0-.772,2.363c-.067.229-.126.458-.191.687-.113-.035-.226-.076-.338-.108a10.612,10.612,0,0,0-3.936-.9,2.088,2.088,0,0,0-1.6.8,1.914,1.914,0,0,0-.363,1.772,4.545,4.545,0,0,0,.992,1.688,12.548,12.548,0,0,0,1.355,1.118c.633.481,1.273.975,1.951,1.392s1.383.774,2.09,1.121a4.833,4.833,0,0,0,2.417.654,3.946,3.946,0,0,0,1.683-.44,3.919,3.919,0,0,0,2.207-2.258c.193-.457.355-.922.521-1.391.23-.657.441-1.318.646-1.984s.442-1.324.6-2A4.741,4.741,0,0,0,57.872-307.93Z" transform="translate(-4.191 -13.537)" fill="#f2a2b2"/>
    <path id="Path_65803" data-name="Path 65803" d="M133.255-408.09a2.376,2.376,0,0,0-2.835-1.609c-.164.033-.331.054-.493.091a3.326,3.326,0,0,0-1.6,1.022,17.836,17.836,0,0,0-1.309,1.637l.484-.627c-.319.408-.626.822-.937,1.234l-.2-.176a5.941,5.941,0,0,0-2.623-1.452,2.45,2.45,0,0,0-2.265.6,2.419,2.419,0,0,0-.6,2.265,2.855,2.855,0,0,0,.507,1.273l.566.74a21.673,21.673,0,0,0,1.557,1.8,5.537,5.537,0,0,0,2.275,1.632,3.9,3.9,0,0,0,3.73-.95,16.694,16.694,0,0,0,2.192-2.327,9.441,9.441,0,0,0,1.526-2.536,4.082,4.082,0,0,0,.3-1.331A3.282,3.282,0,0,0,133.255-408.09Z" transform="translate(-11.636 -3.952)" fill="#f2a2b2"/>
    <path id="Path_65804" data-name="Path 65804" d="M197.424-450.8c-65.316,0-63.436,62.967-61.088,92.571s-39,57.8-15.037,97.74,138.151,29.133,150.369-11.278-13.158-54.039-14.1-85.523S261.331-450.8,197.424-450.8Z" transform="translate(-10.96)" fill="#442946"/>
    <path id="Path_65805" data-name="Path 65805" d="M166.978-288.936c-33.832,9.711-41.351,42.6-47.46,57.171S106.361-194.172,112-179.136s167.754-1.88,167.754-1.88-8.928-59.677-20.676-78-16.916-20.363-32.893-26.158-32.893-1.566-34.3-2.037S166.978-288.936,166.978-288.936Z" transform="translate(-10.588 -15.589)" fill="#ed647e"/>
    <path id="Path_65806" data-name="Path 65806" d="M190.287-319.1s1.567,5.639-1.566,15.35-15.664,11.9-15.664,11.9,11.591,13.784,30.074,15.037a36.766,36.766,0,0,0,29.134-11.278s-13.158-6.579-15.977-13.784-1.253-17.23-1.253-17.23Z" transform="translate(-16.667 -12.684)" fill="#f7b096"/>
    <path id="Path_65807" data-name="Path 65807" d="M216.251-307.624a43.511,43.511,0,0,1-.225-7.665l-8.467-3.806H191.638s1.567,5.639-1.566,15.35a14.175,14.175,0,0,1-2.989,5.137,36.361,36.361,0,0,0,12.565-.07,30.4,30.4,0,0,0,13.1-5.492A20.06,20.06,0,0,0,216.251-307.624Z" transform="translate(-18.018 -12.684)" fill="#f69878"/>
    <path id="Path_65808" data-name="Path 65808" d="M240.933-369.514s5.736-.024,5.952,6.892c.314,10.025-8.144,10.337-8.144,10.337s-7.831,36.027-35.4,36.653S164.5-352.91,164.5-352.91s-8.771-1.253-8.771-9.085,8.144-8.459,8.144-8.459,1.567-10.651,17.23-19.736,21.615-13.47,23.5-20.048c0,0,6.495,12.663,15.037,16.916C231.6-387.362,238.114-375.779,240.933-369.514Z" transform="translate(-14.998 -3.906)" fill="#f7b096"/>
    <path id="Path_65809" data-name="Path 65809" d="M166.329-355.645a8.3,8.3,0,0,0-.76-1.994,11.29,11.29,0,0,0-.892-1.531,9.882,9.882,0,0,0-1.47-1.7,3.554,3.554,0,0,0-.935-.669.8.8,0,0,0-1.127.406c-.175.615.345,1.181.646,1.671s.584.978.839,1.487c.078.157.139.284.194.4a4.353,4.353,0,0,0-.9.686,3.454,3.454,0,0,0-1.007,2.193,2.689,2.689,0,0,0,2.944,2.94,2.963,2.963,0,0,0,2.1-1.354A3.392,3.392,0,0,0,166.329-355.645Z" transform="translate(-15.497 -8.588)" fill="#f69878"/>
    <path id="Path_65810" data-name="Path 65810" d="M254.215-355.747a1.79,1.79,0,0,0-1.281-.837c-.2-.027-.4-.054-.6-.069a1.707,1.707,0,0,0-.275.011l.038-.169a10.7,10.7,0,0,1,.3-1.027l.089-.238-.014.022.041-.071a4.667,4.667,0,0,1,.239-.437l.136-.205.021-.031.127-.164a2.143,2.143,0,0,0,.305-.7,1.113,1.113,0,0,0-1.056-1.385c-1.193-.014-1.985,1.3-2.416,2.253a10.773,10.773,0,0,0-.963,3.223,3.413,3.413,0,0,0,1.555,3.288,2.758,2.758,0,0,0,3.694-.92A2.428,2.428,0,0,0,254.215-355.747Z" transform="translate(-23.97 -8.644)" fill="#f69878"/>
    <path id="Path_65811" data-name="Path 65811" d="M250.644-370.692c-.857.153-1.722-.451-2.6-.5a10.39,10.39,0,0,1-2.81-.5,13.4,13.4,0,0,1-5-3.3c-3.061-3.043-4.837-7.149-7.277-10.677a24.068,24.068,0,0,0-9.429-8.154c-3.6-1.763-7.53-2.971-10.775-5.41a18.436,18.436,0,0,1-4.592-5.494c-.7-1.179-1.343-2.393-1.994-3.6a10.058,10.058,0,0,0-2.857-3.7,28.354,28.354,0,0,0-1.906,2.353c-.608.9-1.079,1.918-1.613,2.866a24.3,24.3,0,0,1-3.769,5.046c-3.224,3.316-7.254,5.109-11.369,6.986a39.767,39.767,0,0,0-11.578,7.794c-3.392,3.342-5.876,7.464-9.06,10.992a15.972,15.972,0,0,1-5.656,4.222,15.257,15.257,0,0,1-6.871,1.056.384.384,0,0,0-.263.646c3.353,3,8.541,1.385,11.851-.821,4.186-2.789,6.791-7.122,9.988-10.914a35.811,35.811,0,0,1,11.659-9.093c4.462-2.188,8.979-3.908,12.716-7.342a27.7,27.7,0,0,0,4.888-6,17.665,17.665,0,0,0,1.579-3.289c.454,1.108.942,2.208,1.439,3.293a20.605,20.605,0,0,0,4,6.134c3.051,3.056,7.1,4.7,10.9,6.53a29.858,29.858,0,0,1,5.364,3.113,20.5,20.5,0,0,1,4.4,4.986c2.556,3.835,4.512,8.191,7.851,11.424a17.253,17.253,0,0,0,6.542,4.108,9.89,9.89,0,0,0,3.481.508c1.5-.07,2.189-1.044,3.36-1.821A.794.794,0,0,0,250.644-370.692Z" transform="translate(-14.554 -3.733)" fill="#5a3b5c"/>
    <path id="Path_65812" data-name="Path 65812" d="M146.741-346.379c-.074-.841.058-1.626.014-2.461-.035-.684-.154-1.371-.245-2.05a10.677,10.677,0,0,0-1.1-4.387.62.62,0,0,0-1.119.146,12.667,12.667,0,0,0-.135,3.832q.019,1.023,0,2.048c-.012.707.141,1.356.18,2.05a33.891,33.891,0,0,1-.383,4.1c-.1,1.371-.24,2.737-.441,4.1a60.059,60.059,0,0,1-4.569,15.936c-2.35,5.2-5.689,9.768-8.621,14.632a44.252,44.252,0,0,0-5.916,15.557,43.9,43.9,0,0,0-.595,8.954,23.949,23.949,0,0,0,.53,4.445,21.4,21.4,0,0,0,1.676,4.358.673.673,0,0,0,1.244-.337c-.071-1.344-.014-2.658-.088-4s-.183-2.706-.25-4.06a39.981,39.981,0,0,1,.4-8.136,42.075,42.075,0,0,1,5.775-15.412c2.942-4.856,6.262-9.429,8.588-14.636a58.223,58.223,0,0,0,4.6-15.694A39.857,39.857,0,0,0,146.741-346.379Z" transform="translate(-11.922 -9.171)" fill="#5a3b5c"/>
    <path id="Path_65813" data-name="Path 65813" d="M159.393-345.278c-.114-.849-1.415-.738-1.609,0-.978,3.714-.991,7.735-1.521,11.532a58.561,58.561,0,0,1-2.616,11.347c-2.511,7.139-6.968,13.571-8.561,21.04a25.576,25.576,0,0,0-.589,6.054,8.709,8.709,0,0,0,1.984,5.56c.365.469,1.057.042,1.083-.448.042-.811.177-1.613.2-2.428.023-.965-.109-1.926-.122-2.893a24.278,24.278,0,0,1,.6-5.415,49.5,49.5,0,0,1,3.8-10.456c1.538-3.3,3.15-6.588,4.355-10.034a54.935,54.935,0,0,0,2.494-11.082C159.426-336.644,159.954-341.116,159.393-345.278Z" transform="translate(-13.915 -10.105)" fill="#5a3b5c"/>
    <path id="Path_65814" data-name="Path 65814" d="M173.526-319.768a.756.756,0,0,0-1.4.378,5.987,5.987,0,0,1-.47,1.2c-.165.459-.3.924-.418,1.4-.205.808-.377,1.625-.565,2.437-.408,1.763-.748,3.54-1.1,5.314s-.757,3.546-1.036,5.333a20.187,20.187,0,0,0-.068,5.292c.041.415.62.667.85.23a20.261,20.261,0,0,0,2.02-5.182c.421-1.9.736-3.833,1.1-5.747s.71-3.838,1.015-5.768C173.68-316.28,174.345-318.481,173.526-319.768Z" transform="translate(-16.212 -12.584)" fill="#5a3b5c"/>
    <path id="Path_65815" data-name="Path 65815" d="M279.323-287.932a44.227,44.227,0,0,0-3.692-14.9c-2.155-4.843-5.474-9.058-7.363-14.032a71.839,71.839,0,0,1-3.664-16.273c-.408-3.146-.654-6.3-.905-9.466-.252-3.2-.089-6.389-.809-9.523a.135.135,0,0,0-.258,0,27.355,27.355,0,0,0-1.06,8.365c-.072,2.777-.037,5.547.136,8.32a83.529,83.529,0,0,0,2.348,16.181,41.6,41.6,0,0,0,2.826,7.647c1.152,2.351,2.552,4.569,3.8,6.87a41.791,41.791,0,0,1,4.672,14.265,41.88,41.88,0,0,1,.251,8.445c-.093,1.351-.238,2.7-.386,4.043a12.7,12.7,0,0,0-.143,2,18.962,18.962,0,0,0,.4,2.16.681.681,0,0,0,1.133.3,8.25,8.25,0,0,0,1.8-2.806,22.994,22.994,0,0,0,.788-4.072A40.163,40.163,0,0,0,279.323-287.932Z" transform="translate(-25.188 -9.494)" fill="#5a3b5c"/>
    <path id="Path_65816" data-name="Path 65816" d="M261.931-297.515c-.9-3.965-2.716-7.672-4.363-11.368a49.729,49.729,0,0,1-3.6-11.845c-.361-2.069-.652-4.153-.952-6.232a15.441,15.441,0,0,1-.227-2.651c.023-.8.317-1.58.286-2.383a.2.2,0,0,0-.253-.193c-1.48.286-1.8,2.235-1.909,3.476a36.907,36.907,0,0,0,.22,5.866,48.3,48.3,0,0,0,2.466,12.6c1.4,3.9,3.345,7.6,4.5,11.6a22.018,22.018,0,0,1,.945,5.741c.029,1.862-.287,3.821.483,5.574a.564.564,0,0,0,.762.2C263.624-288.972,262.613-294.53,261.931-297.515Z" transform="translate(-24.16 -11.423)" fill="#5a3b5c"/>
    <path id="Path_65817" data-name="Path 65817" d="M244.594-304.785c-.432-1.8-.932-3.589-1.447-5.369-.466-1.618-.76-3.627-2.035-4.83a.237.237,0,0,0-.39.1c-.573,1.562,0,3.366.284,4.94.308,1.69.662,3.37.989,5.056a27.965,27.965,0,0,1,.568,4.492c.02.7.088,1.422.065,2.12a8.312,8.312,0,0,0-.014,2.087.339.339,0,0,0,.491.2c1.311-.6,1.853-2.435,2.009-3.753A14.758,14.758,0,0,0,244.594-304.785Z" transform="translate(-23.16 -13.073)" fill="#5a3b5c"/>
    <path id="Path_65818" data-name="Path 65818" d="M200.168-427.632c-.023-.392-.642-.666-.83-.225a28.338,28.338,0,0,1-1.318,3.255c-.631,1.082-1.267,2.154-1.878,3.251a34.677,34.677,0,0,1-3.985,5.972,26.7,26.7,0,0,1-12.295,7.994c-2.69.851-5.507,1.6-7.869,3.2a18.928,18.928,0,0,0-4.856,4.995c-2.652,3.822-4.258,8.349-7.2,11.975a15.284,15.284,0,0,1-6.99,4.884,17.639,17.639,0,0,1-4.324.883c-.726.052-1.458.093-2.186.076a2.385,2.385,0,0,0-1.639.408.392.392,0,0,0-.139.533,1.741,1.741,0,0,0,1.166.9,13.614,13.614,0,0,0,1.7.3,14.822,14.822,0,0,0,4.332-.163,17.9,17.9,0,0,0,7.334-3.082c4.231-3.063,6.418-7.689,8.932-12.1a22.892,22.892,0,0,1,4.324-5.808c2.117-1.919,4.828-2.747,7.5-3.58a30.967,30.967,0,0,0,13.71-8.2,26.978,26.978,0,0,0,4.878-6.986,12.775,12.775,0,0,0,1.282-4.133A29.215,29.215,0,0,0,200.168-427.632Z" transform="translate(-13.926 -2.187)" fill="#5a3b5c"/>
    <path id="Path_65819" data-name="Path 65819" d="M193.04-440.424c-2.51,4.04-4.235,8.578-7.781,11.887-3.276,3.057-7.585,4.381-11.713,5.854-3.921,1.4-7.973,3.022-10.824,6.188-2.9,3.224-4.15,7.455-5.886,11.341a14.557,14.557,0,0,1-4.128,5.825,11.75,11.75,0,0,1-3.751,1.827c-1.286.393-2.633.385-3.9.83a.373.373,0,0,0-.089.671c1.875,1.26,4.733.695,6.694-.108a12.921,12.921,0,0,0,5.4-4.249c2.783-3.665,3.732-8.273,6.105-12.165,2.428-3.985,6.555-5.867,10.79-7.379,4.347-1.553,8.826-2.933,12.459-5.9,4.237-3.456,7.5-8.772,7.888-14.284C194.355-440.784,193.375-440.962,193.04-440.424Z" transform="translate(-13.945 -0.969)" fill="#5a3b5c"/>
    <path id="Path_65820" data-name="Path 65820" d="M257.684-384.62c-1.924-.4-3.767-.592-5.48-1.652a14.947,14.947,0,0,1-4.339-4.393c-2.293-3.394-3.669-7.325-6.059-10.668a16.721,16.721,0,0,0-4.347-4.34,20.559,20.559,0,0,0-6.119-2.442,28.193,28.193,0,0,1-6.432-2.144,12.1,12.1,0,0,1-4.121-3.776c-2.591-3.787-2.934-8.111-3.665-12.49a.683.683,0,0,0-1.309,0,21.641,21.641,0,0,0,1.853,12.215,15.053,15.053,0,0,0,9.225,8.3c2.275.753,4.679,1.159,6.891,2.1a11.948,11.948,0,0,1,5.025,4.127c2.576,3.6,3.8,7.95,6.348,11.558s8.044,8.849,12.842,6A1.327,1.327,0,0,0,257.684-384.62Z" transform="translate(-20.76 -2.291)" fill="#5a3b5c"/>
    <path id="Path_65821" data-name="Path 65821" d="M261.684-398.7c-1.405-1.671-3.653-2.078-5.544-3.019a9.874,9.874,0,0,1-3.561-3.026c-1.948-2.62-3.073-5.745-4.841-8.479a12.3,12.3,0,0,0-8.562-5.891,20.43,20.43,0,0,1-6.134-1.537,16.536,16.536,0,0,1-4.693-3.7,25.056,25.056,0,0,1-3.958-6.3c-.558-1.209-1.052-2.449-1.524-3.693a9.281,9.281,0,0,0-1.666-3.406.6.6,0,0,0-.986.26,7.051,7.051,0,0,0,.422,3.092c.346,1.238.738,2.466,1.178,3.674a31.537,31.537,0,0,0,3.1,6.477,17.211,17.211,0,0,0,9.99,7.678c2.106.527,4.467.5,6.417,1.539a9.377,9.377,0,0,1,3.352,3.267c1.864,2.848,3.006,6.115,5,8.888a13.2,13.2,0,0,0,4.675,4.227c2.176,1.1,5,1.814,7.252.614A.428.428,0,0,0,261.684-398.7Z" transform="translate(-21.203 -1.24)" fill="#5a3b5c"/>
    <path id="Path_65822" data-name="Path 65822" d="M230.693-286.249a28.576,28.576,0,0,1-11.085,7.385A40.93,40.93,0,0,1,207.6-276.4a49.889,49.889,0,0,1-6.226-.144,10.991,10.991,0,0,0-2.749-.14l-.122.032a2.183,2.183,0,0,0-.636-.307c-.541-.181-1.131-.258-1.691-.385a44.494,44.494,0,0,1-11.575-4.371,39.777,39.777,0,0,1-5.789-3.747q-1.353-1.083-2.609-2.277a7.843,7.843,0,0,0-2.747-2.018c-.645-.237-1.195.466-1.055,1.055.481,2.018,2.559,3.548,4.068,4.853a45.364,45.364,0,0,0,5.393,4.077,45.285,45.285,0,0,0,12.085,5.3,15.694,15.694,0,0,0,3.313.75,5.831,5.831,0,0,0,.624-.049l.334.091a8.485,8.485,0,0,0,1.837.461,38.657,38.657,0,0,0,6.854.485,41.716,41.716,0,0,0,13.079-2.152c5.128-1.754,10.5-4.528,13.591-9.135C234.743-285.762,232.119-287.75,230.693-286.249Z" transform="translate(-16.601 -15.505)" fill="#ee4959"/>
    <path id="Path_65823" data-name="Path 65823" d="M154.614-242.858c-1.784,1.236-2.7,3.556-3.531,5.486-.976,2.257-1.9,4.551-2.673,6.884s-1.514,4.671-2.263,7.009c-.671,2.1-1.929,4.8-1.025,6.984a.407.407,0,0,0,.588.24c1.894-1.195,2.429-3.807,3.045-5.8.727-2.352,1.443-4.706,2.187-7.051.709-2.238,1.375-4.49,2.16-6.7.755-2.128,2.05-4.45,2.048-6.743A.359.359,0,0,0,154.614-242.858Z" transform="translate(-13.946 -20.021)" fill="#ee4959"/>
    <path id="Path_65824" data-name="Path 65824" d="M263.6-218.062q-.64-1.736-1.3-3.467c-.824-2.163-1.636-4.331-2.5-6.479-.84-2.088-1.672-4.176-2.619-6.216-.861-1.859-1.681-3.551-3.419-4.712-.162-.108-.347.07-.31.239a92.453,92.453,0,0,0,3.989,12.057c.78,2.095,1.583,4.183,2.368,6.275q.568,1.517,1.146,3.031a13.055,13.055,0,0,0,1.416,3.277c.645.85,2.327.717,2.243-.607A12.216,12.216,0,0,0,263.6-218.062Z" transform="translate(-24.409 -20.401)" fill="#ee4959"/>
    <path id="Path_65825" data-name="Path 65825" d="M195.764-369.91c-.681-2.321-3.807-3.309-6-3.182a9.03,9.03,0,0,0-3.606,1.064c-1.125.582-2.435,1.371-2.652,2.716a1.225,1.225,0,0,0,1.161,1.524,2.938,2.938,0,0,0,1.692-.436,11.617,11.617,0,0,1,1.154-.667c.1-.049.2-.1.3-.142l.041-.019.083-.029c.207-.071.413-.145.625-.2s.426-.106.641-.151l.084-.017c.11-.011.221-.021.333-.029.193-.015.386-.023.579-.019.1,0,.194,0,.291.011l.1.008.145.021c.1.019.191.039.285.062.213.052.418.119.625.191l.228.114c.169.089.329.194.489.3l.02.012.01.013.215.187a3.982,3.982,0,0,0,.787.5A1.634,1.634,0,0,0,195.764-369.91Z" transform="translate(-17.671 -7.483)" fill="#442946"/>
    <path id="Path_65826" data-name="Path 65826" d="M231.129-369.66c-.535-1.159-2.078-1.9-3.214-2.356a9.994,9.994,0,0,0-3.477-.651,9.943,9.943,0,0,0-3.408.524,4.8,4.8,0,0,0-3.081,2.311,1.319,1.319,0,0,0,1.468,1.908,6.441,6.441,0,0,0,1.557-.51c.112-.053.222-.111.333-.165l.046-.023c.194-.077.39-.146.589-.207.239-.072.48-.135.723-.184.1-.021.2-.039.295-.056l.08-.013a10.16,10.16,0,0,1,1.4-.033c.1.006.2.014.3.023l.118.012c.2.034.395.069.59.113.22.052.436.11.651.178.119.037.238.078.355.121l.159.057c.183.08.475.212.164.068.113.052.226.1.338.158.2.1.4.207.588.323a7.646,7.646,0,0,0,1.537.861,1.662,1.662,0,0,0,1.758-.6A1.726,1.726,0,0,0,231.129-369.66Z" transform="translate(-20.977 -7.524)" fill="#442946"/>
    <path id="Path_65827" data-name="Path 65827" d="M196.293-359.726a.7.7,0,0,0-.81-.1c-1.056.541-1.478,1.664-2.316,2.447a4.33,4.33,0,0,1-2.8,1.14,5.52,5.52,0,0,1-3.212-1.055,14.2,14.2,0,0,1-2.635-2.9,1.329,1.329,0,0,0-1.581-.2,4.448,4.448,0,0,0-2.2,1.7.63.63,0,0,0,.535.934,6.157,6.157,0,0,0,1.45-.125,9.185,9.185,0,0,0,2.974,3.308,7.787,7.787,0,0,0,4.977,1.513,7.714,7.714,0,0,0,4.725-2.076C196.533-356.217,197.783-358.422,196.293-359.726Z" transform="translate(-17.4 -8.69)" fill="#442946"/>
    <path id="Path_65828" data-name="Path 65828" d="M233.67-358.522a2.925,2.925,0,0,0-.366-.472,3.093,3.093,0,0,0-.727-.709c-.228-.138-.462-.269-.7-.389a1.748,1.748,0,0,0-.344-.124,1.625,1.625,0,0,0-.213-.18,1.771,1.771,0,0,0-2.135.276,8.332,8.332,0,0,0-.639.932l-.176.264c-.07.086-.141.17-.215.251a5.006,5.006,0,0,1-1.137,1,7.611,7.611,0,0,1-.743.412l-.081.037-.077.029c-.133.048-.268.095-.4.135a3.506,3.506,0,0,1-1.515.162,5.08,5.08,0,0,1-2.586-1.041,18.75,18.75,0,0,1-2.253-2.637c-.626-.723-1.675-.087-1.738.719a5.124,5.124,0,0,0,2.073,4.076,7.978,7.978,0,0,0,4.419,1.957,8.381,8.381,0,0,0,4.613-.924,7.482,7.482,0,0,0,1.873-1.353,6.475,6.475,0,0,0,1.337-1.8l.136.117a4.382,4.382,0,0,0,.434.376l.188.1a.969.969,0,0,0,.385.1l.063-.009.142.04a.429.429,0,0,0,.54-.411l-.016-.183A1.078,1.078,0,0,0,233.67-358.522Z" transform="translate(-20.958 -8.658)" fill="#442946"/>
    <path id="Path_65829" data-name="Path 65829" d="M211.86-342.807a.355.355,0,0,0-.433-.433l-.051.014a1.362,1.362,0,0,0-.44.007l-.011,0a1.467,1.467,0,0,0-.32.071c-.282.1-.564.182-.839.3.187-.079.014-.006-.026.007l-.183.064c-.124.04-.25.074-.376.1l-.153.032-.11.018-.111.012-.2.012c-.117,0-.234.005-.352,0l-.194-.013-.091-.008c-.225-.033-.454-.07-.675-.123a2.8,2.8,0,0,1-1.168-.536.65.65,0,0,0-.918.918,4.468,4.468,0,0,0,3.4,1.562,5.135,5.135,0,0,0,1.848-.309,1.93,1.93,0,0,0,1.374-1.6Z" transform="translate(-19.746 -10.339)" fill="#f69878"/>
    <path id="Path_65830" data-name="Path 65830" d="M211.555-343.194h.01Z" transform="translate(-20.374 -10.363)" fill="#f69878"/>
    <path id="Path_65831" data-name="Path 65831" d="M211.54-330.586a1.727,1.727,0,0,0-.892.041c-.1.036-.205.064-.307.1s-.193.078-.288.118l-.054.019a5.843,5.843,0,0,1-.666.2c-.106.024-.214.039-.321.063l-.007,0-.193.019a5.3,5.3,0,0,1-.656.009l-.2-.014-.081-.008-.091-.014-.161-.031a4.857,4.857,0,0,1-.669-.188,1.973,1.973,0,0,0-.415-.131,2.108,2.108,0,0,0-.4.01.658.658,0,0,0-.56.977,1.376,1.376,0,0,0,.685.673,6.49,6.49,0,0,0,.856.326,5.977,5.977,0,0,0,1.7.23c1.11-.009,2.885-.283,3.214-1.55A.7.7,0,0,0,211.54-330.586Z" transform="translate(-19.791 -11.574)" fill="#f69878"/>
    <path id="Path_65832" data-name="Path 65832" d="M241.307-350.223a3.425,3.425,0,0,0-1.823-1.581,10.12,10.12,0,0,0-3.506-.673,8.092,8.092,0,0,0-3.678.738,4.037,4.037,0,0,0-1.384.98,2.987,2.987,0,0,0-.446,3.474,5.163,5.163,0,0,0,3.365,2.094,9.107,9.107,0,0,0,3.77.189c.23-.036.474-.091.719-.155a3.918,3.918,0,0,0,1.416-.446,3.616,3.616,0,0,0,1.647-1.822A3.271,3.271,0,0,0,241.307-350.223Z" transform="translate(-22.16 -9.468)" fill="#f58a78"/>
    <path id="Path_65833" data-name="Path 65833" d="M183.471-350.223a3.423,3.423,0,0,0-1.822-1.581,10.124,10.124,0,0,0-3.506-.673,8.092,8.092,0,0,0-3.678.738,4.057,4.057,0,0,0-1.385.98,2.988,2.988,0,0,0-.445,3.474A5.165,5.165,0,0,0,176-345.191a9.107,9.107,0,0,0,3.77.189c.23-.036.474-.091.718-.155a3.917,3.917,0,0,0,1.417-.446,3.61,3.61,0,0,0,1.646-1.822A3.264,3.264,0,0,0,183.471-350.223Z" transform="translate(-16.59 -9.468)" fill="#f58a78"/>
    <path id="Path_65834" data-name="Path 65834" d="M295.257-124.273A102.438,102.438,0,0,1,192.819-21.834,102.438,102.438,0,0,1,90.381-124.273,102.438,102.438,0,0,1,192.819-226.711,102.438,102.438,0,0,1,295.257-124.273Z" transform="translate(-8.704 -21.581)" fill="#fcdbde"/>
    <path id="Path_65835" data-name="Path 65835" d="M264.063-120.552A67.523,67.523,0,0,1,196.54-53.029a67.523,67.523,0,0,1-67.523-67.523,67.523,67.523,0,0,1,67.523-67.523A67.523,67.523,0,0,1,264.063-120.552Z" transform="translate(-12.425 -25.302)" fill="#fff"/>
    <path id="Path_65836" data-name="Path 65836" d="M195.226-160.033c21.686-.558,26.245,14.193,38.565,13.926s39.637-18.479,49.812-1.874-4.82,32.672-19.817,38.3-26.246,1.34-27.854-9.373,13.392-17.407,21.426-10.712,14.729,1.875,15.265-5.356-9.642-11.784-19.282-8.034-15.533,10.712-23.3,13.39-9.106,8.57-10.713,16.069-8.3,9.106-5.623,17.945,4.749,12.228-1.34,20.353-11.516,12.855-7.5,25.442,2.947,16.338-2.142,20.355-22.312.274-20.085-8.3,7.5-8.837,2.946-19.015S173-64.96,173.532-78.619s2.411-16.871-3.214-23.3,3.481-13.123-2.946-20.89-9.106-8.837-25.443-15.265-19.55-5.088-20.889,1.875,4.017,5.624,11.783,4.82,19.55,3.214,19.015,15-18.212,15-33.745,2.678-22.5-29.994-10.712-39.9,27.584,5.089,39.368,8.3S174.336-159.5,195.226-160.033Z" transform="translate(-9.772 -28.001)" fill="#ed647e"/>
    <path id="Path_65837" data-name="Path 65837" d="M277.939-146.737c-6.437-4.7-15.029-3.109-22.159-1.184-8.539,2.306-16.687,5.785-24.946,8.9-4.484,1.694-9.1,3.571-13.873,4.249a20.7,20.7,0,0,1-6.723-.1,13.6,13.6,0,0,1-1.926-.523c-4.119-4.269-10.046-6.348-17.353-4.149a29.035,29.035,0,0,0-9.866,4.933c-.168.024-.334.055-.5.075a49.1,49.1,0,0,1-10.091-.082,52.7,52.7,0,0,1-11.046-1.671c-3.665-1.115-6.726-3.436-10.08-5.2a46.848,46.848,0,0,0-11.117-3.833,60.338,60.338,0,0,0-11.952-1.949c-6.273-.189-13.855,2.887-14.876,9.879-.594,4.064,1.427,8.7,3.9,11.853,1.93,2.468,6.92,6.137,9.794,3.079a.764.764,0,0,0-.153-1.189,8.258,8.258,0,0,0-1.822-.661,10.761,10.761,0,0,1-2.315-.613,8.83,8.83,0,0,1-3.665-3.278c-1.767-2.66-3.519-6.446-2.562-9.673.786-2.65,3.212-4.646,5.7-5.644,3.344-1.338,7.253-1.069,10.711-.35a108.348,108.348,0,0,1,10.59,2.623,43.912,43.912,0,0,1,9.686,4.639,30.89,30.89,0,0,0,9.748,4.152,80.346,80.346,0,0,0,10.378,1.286,48.507,48.507,0,0,0,6.195.117c-7.651,10.218-1.9,24.946,5.625,31.557a37.773,37.773,0,0,1,4.7,9.076,25.714,25.714,0,0,1,1.432,8.392,27.555,27.555,0,0,1-.523,5.015,22.369,22.369,0,0,1-.689,2.448c-.248.719-.475,1.4-.644,2.072-1.028,2.609-2.267,4.884-1.754,7.845.466,2.679,2.131,4.9,3.053,7.407,2.213,6.03-3.406,11.531-4.407,17.265a10.64,10.64,0,0,0,1.938,8.706,15.086,15.086,0,0,0,7.293,4.9c5.206,1.634,10.957-.127,13.564-5.106,2.524-4.824,1.94-10.462.623-15.537-.824-3.175-1.918-6.361-2.122-9.655a20.518,20.518,0,0,1,1.68-8.547c1.137-3.083,2.344-6.282,2.064-9.63-.294-3.512-2.079-6.458-3.3-9.686a22,22,0,0,1-1.34-9.375,19.081,19.081,0,0,1,.427-2.771c3.248-2.339,6-6.307,8.057-12.128a27.864,27.864,0,0,0-2.229-22.985c.487.079.965.141,1.422.185,3.949.381,7.913-.557,11.651-1.748,7.986-2.543,15.677-5.928,23.584-8.7a114.575,114.575,0,0,1,11.924-3.561c3.394-.79,7.035-1.4,10.51-.792a10.72,10.72,0,0,1,7.661,4.884,12.98,12.98,0,0,1,1.5,8.15,14.706,14.706,0,0,1-4.668,8.657c-2.735,2.578-6.193,3.881-9.579,5.36-1.876.82-.956,4.1,1.056,3.9,7.2-.709,14.159-6.338,16.726-13.061C285.216-134.723,283.42-142.735,277.939-146.737Z" transform="translate(-10.721 -28.987)" fill="#ee4959"/>
    <path id="Path_65838" data-name="Path 65838" d="M131.1-121.763c-8.662,7.362,3.482,15.266,8.571,15.266s10.177-4.286,8.57-10.981S136.459-126.316,131.1-121.763Z" transform="translate(-12.334 -31.456)" fill="#f4878d"/>
    <path id="Path_65839" data-name="Path 65839" d="M273.242-121.763c8.662,7.362-3.481,15.266-8.57,15.266s-10.177-4.286-8.571-10.981S267.886-126.316,273.242-121.763Z" transform="translate(-24.636 -31.456)" fill="#f4878d"/>
    <path id="Path_65840" data-name="Path 65840" d="M200.86-132.226c-12.02,4.407-7.231,19.283-2.143,22.764s9.641,2.144,12.052-6.16S208.894-135.172,200.86-132.226Z" transform="translate(-18.62 -30.635)" fill="#f4878d"/>
    <path id="Path_65841" data-name="Path 65841" d="M204.549-126.438l-.094.04c-.122.052-.244.1-.366.155C204.242-126.308,204.4-126.372,204.549-126.438Z" transform="translate(-19.655 -31.238)" fill="#f6b0b3"/>
    <path id="Path_65842" data-name="Path 65842" d="M205.534-129.288l.1.239a1.7,1.7,0,0,0-.8-1.044,2.213,2.213,0,0,0-.627-.22,3.954,3.954,0,0,0-1.044-.112,4.379,4.379,0,0,0-1.116.182,9.027,9.027,0,0,0-1.009.43,6.833,6.833,0,0,0-1.428,1,4.11,4.11,0,0,0-.723.82,3.065,3.065,0,0,0-.167.3,3.869,3.869,0,0,0-.223.524,1.575,1.575,0,0,0-.062.582,1.783,1.783,0,0,0,.114.949,1.664,1.664,0,0,0,.712.833,2.05,2.05,0,0,0,.879.237,1.58,1.58,0,0,0,.925-.285,5.278,5.278,0,0,0,1.49-1.233,5.1,5.1,0,0,1,.878-.5c.158-.066.316-.132.474-.2l.206-.086a2.806,2.806,0,0,0,1.065-.557,2.308,2.308,0,0,0,.316-.436A1.548,1.548,0,0,0,205.534-129.288Z" transform="translate(-19.109 -30.854)" fill="#f6b0b3"/>
    <path id="Path_65843" data-name="Path 65843" d="M197.856-121.435c-.039-.092-.078-.185-.117-.278l-.181-.234a.887.887,0,0,0-.373-.24.577.577,0,0,0-.294-.079.575.575,0,0,0-.308,0,.574.574,0,0,0-.293.079.882.882,0,0,0-.373.24l-.219.191-.089.1a1.5,1.5,0,0,0-.383.657,2.066,2.066,0,0,0-.066.6,2.043,2.043,0,0,0,.046.413,1.223,1.223,0,0,0,.307.526.9.9,0,0,0,.369.239.548.548,0,0,0,.284.077l.161.022a.928.928,0,0,0,.464-.1l.16-.071.241-.186.062-.048.1-.081a1.661,1.661,0,0,0,.287-.356l.024-.034c.045-.106.09-.211.135-.318l.017-.08.023-.137a3.238,3.238,0,0,0,.049-.438l0-.151C197.883-121.229,197.869-121.333,197.856-121.435Z" transform="translate(-18.795 -31.638)" fill="#f6b0b3"/>
    <path id="Path_65844" data-name="Path 65844" d="M139.547-121.434a2.342,2.342,0,0,0-2.1-.652,4.187,4.187,0,0,0-1.032.22,1.888,1.888,0,0,0-1.2,1.047l-.007.028a3.351,3.351,0,0,0-.811.428,3.184,3.184,0,0,0-.731.7c-.065.086-.128.173-.189.263a1.875,1.875,0,0,0-.392,1.29,1.447,1.447,0,0,0,.544,1.085,1.325,1.325,0,0,0,1.206.248,2.193,2.193,0,0,0,.671-.322,2.41,2.41,0,0,0,.341-.338,8.652,8.652,0,0,0,.649-.778c.064-.09.126-.182.187-.274a1.942,1.942,0,0,0,1.083-.258c.189-.1.388-.191.573-.3a5.657,5.657,0,0,1,.521-.279,1.7,1.7,0,0,0,.75-.682A.965.965,0,0,0,139.547-121.434Z" transform="translate(-12.816 -31.656)" fill="#f6b0b3"/>
    <path id="Path_65845" data-name="Path 65845" d="M271.106-116.412l-.071-.057c-.1-.076-.2-.152-.307-.236C270.854-116.608,270.98-116.51,271.106-116.412Z" transform="translate(-26.073 -32.176)" fill="#f6b0b3"/>
    <path id="Path_65846" data-name="Path 65846" d="M273.534-117.875l.01-.036a2.235,2.235,0,0,0-.794-2.163,6.116,6.116,0,0,0-1.063-.785,7.257,7.257,0,0,0-1.172-.484,5.27,5.27,0,0,0-1.053-.189,4.019,4.019,0,0,0-1.532-.039,3.375,3.375,0,0,0-.333.123l.077-.033-.085.036c-.093.038-.143.06-.081.034l-.144.061q-.468.332-.134.128c-.09.067-.181.136-.269.207-.07.064-.045.048.076-.046a3.6,3.6,0,0,0-.312.245.755.755,0,0,0-.22.673.828.828,0,0,0,.381.586l0,0,.07.076.009.009.13.164a3.9,3.9,0,0,0,.346.261,2.728,2.728,0,0,0,.733.328,6.936,6.936,0,0,1,1.2.747c.2.157.394.314.593.467l-.38-.293c.134.1.263.214.388.331.2.189.425.352.643.52a1.889,1.889,0,0,0,.624.333,1.925,1.925,0,0,0,.595.063l.044,0a1.678,1.678,0,0,0,1.2-.5,1.846,1.846,0,0,0,.436-.8l0,.016Z" transform="translate(-25.666 -31.701)" fill="#f6b0b3"/>
    <path id="Path_65847" data-name="Path 65847" d="M358.134-187.242A41.34,41.34,0,0,1,304.707-163.5a41.341,41.341,0,0,1-23.742-53.427,41.341,41.341,0,0,1,53.428-23.741A41.34,41.34,0,0,1,358.134-187.242Z" transform="translate(-26.793 -19.97)" fill="#442946"/>
    <path id="Path_65848" data-name="Path 65848" d="M301.292-181.243l-1.067-.411A7.9,7.9,0,0,1,295.7-191.83l11.584-30.109a7.9,7.9,0,0,1,10.176-4.521l1.067.41a7.9,7.9,0,0,1,4.521,10.176l-11.583,30.11A7.9,7.9,0,0,1,301.292-181.243Z" transform="translate(-28.428 -21.555)" fill="#fff"/>
    <path id="Path_65849" data-name="Path 65849" d="M327-171.354l-1.068-.41a7.9,7.9,0,0,1-4.521-10.176L333-212.049a7.9,7.9,0,0,1,10.176-4.522l1.066.41a7.9,7.9,0,0,1,4.522,10.176l-11.583,30.109A7.9,7.9,0,0,1,327-171.354Z" transform="translate(-30.904 -22.508)" fill="#fff"/>
    <path id="Path_65850" data-name="Path 65850" d="M349.585-231.97c-.846-2.252-2.834-3.471-4.78-4.7a33.56,33.56,0,0,0-4.737-2.5,27.2,27.2,0,0,0-5.5-1.818c-1.928-.36-4.507-.4-6.226.657-1.467.906-1.124,2.784-.139,3.832a4.179,4.179,0,0,0,1.386.856c-.012,0,.916.408.472.184a21.364,21.364,0,0,0,2.608,1.2,47.982,47.982,0,0,1,4.526,1.708q1.1.511,2.159,1.1c.3.171.6.347.9.523l.189.116c.155.1.31.2.464.308.671.451,1.333.915,1.977,1.4a7.424,7.424,0,0,0,3.157,1.459A3.256,3.256,0,0,0,349.585-231.97Z" transform="translate(-31.527 -20.184)" fill="#664369"/>
    <path id="Path_65851" data-name="Path 65851" d="M358.5-219.812a4.469,4.469,0,0,0-.155-1.842,3.471,3.471,0,0,0-.684-1.735c-.267-.324-.562-.627-.852-.929-.108-.111-.22-.218-.337-.32a3.386,3.386,0,0,0-1.847-.807l.067,0a2.351,2.351,0,0,0-1.188-.106l-.728.174a2.2,2.2,0,0,0-.921.6,2.674,2.674,0,0,0-.9,1.624,5.909,5.909,0,0,0-.028.829,4.014,4.014,0,0,0,.168.7,3.788,3.788,0,0,0,.583,1.393l.046.078a4.356,4.356,0,0,0,.88,1.3l.005.006a3.509,3.509,0,0,0,.3.372l-.108-.116a6.072,6.072,0,0,1,.627.812l.479.517c.2.126.4.254.6.382a2.737,2.737,0,0,0,1.792.155,2.628,2.628,0,0,0,1.225-.656,2.839,2.839,0,0,0,.856-1.549A5.059,5.059,0,0,0,358.5-219.812Z" transform="translate(-33.797 -21.69)" fill="#664369"/>
    <path id="Path_65852" data-name="Path 65852" d="M82.627-182.227a20.58,20.58,0,0,1-28.363-6.526,20.579,20.579,0,0,1,6.526-28.362,20.581,20.581,0,0,1,28.363,6.526A20.58,20.58,0,0,1,82.627-182.227Zm-20.8-52.4-10.763-17.2,11.4-7.136a8.31,8.31,0,0,0,2.628-11.419l-2.613-4.174a8.311,8.311,0,0,0-11.421-2.628l-11.4,7.136L33.1-280.529A9.393,9.393,0,0,0,20.188-283.5l-2.344,1.468a9.393,9.393,0,0,0-2.97,12.906l6.563,10.485-11.4,7.135a8.31,8.31,0,0,0-2.627,11.42l2.613,4.174a8.311,8.311,0,0,0,11.42,2.628l11.4-7.136,10.952,17.5A36.337,36.337,0,0,0,40.915-180.4a36.328,36.328,0,0,0,50.066,11.518A36.326,36.326,0,0,0,102.5-218.945,36.335,36.335,0,0,0,61.825-234.627Z" transform="translate(-0.593 -15.976)" fill="#442946"/>
    <path id="Path_65853" data-name="Path 65853" d="M102.92-213.992a7.449,7.449,0,0,0,.075-1.281,7.313,7.313,0,0,0-1.758-3.886,17,17,0,0,0-5.8-4.281,52.527,52.527,0,0,0-7.172-2.7c-2.632-.83-5.709-1.5-8.438-.952a1.981,1.981,0,0,0-.866,3.279c1.694,1.843,4.246,2.892,6.544,3.79,1.024.4,2.089.707,3.125,1.076a27.2,27.2,0,0,1,2.686,1.075,21.168,21.168,0,0,1,2.783,1.562c.164.11.324.224.484.34l.123.1c.374.321.731.654,1.079,1,.308.306.605.626.925.918.2.181.4.366.6.538.009.008.989.764.51.388a6.575,6.575,0,0,0,1.738,1.043c-1.041-.415.07.19.284.28l.094.035a7.113,7.113,0,0,0,.81.661,1.036,1.036,0,0,0,1.4-.367,3.589,3.589,0,0,0,.465-1.278,2.4,2.4,0,0,0,.315-1.086C102.937-213.822,102.931-214.039,102.92-213.992Z" transform="translate(-7.553 -21.525)" fill="#664369"/>
    <path id="Path_65854" data-name="Path 65854" d="M114.219-200.958a8.716,8.716,0,0,0-.437-2.227c-.042-.108-.087-.214-.131-.321a4.631,4.631,0,0,0-.871-1.464,4.165,4.165,0,0,0-.962-.882,5.042,5.042,0,0,0-.575-.349,2.236,2.236,0,0,0-2.591.226,2.731,2.731,0,0,0-.741,1.831c-.014.206-.054.413-.061.618a7.461,7.461,0,0,0,.286,2.015c.328,1.33.7,3.1,1.951,3.824a1.781,1.781,0,0,0,1.388.675,2.055,2.055,0,0,0,1.358-.6,2.5,2.5,0,0,0,.265-.322,2.418,2.418,0,0,0,.681-.749,3.2,3.2,0,0,0,.4-1.487A3.4,3.4,0,0,0,114.219-200.958Z" transform="translate(-10.387 -23.527)" fill="#664369"/>
    <path id="Path_65855" data-name="Path 65855" d="M33.346-275.208a2.322,2.322,0,0,0,.148-1.657,5.268,5.268,0,0,0-.335-.784,5.246,5.246,0,0,0-.69-1.046,6.483,6.483,0,0,0-1.529-1.3,5,5,0,0,0-1.818-.741,4.824,4.824,0,0,0-1.5-.1,3.27,3.27,0,0,0-.588.113,2.3,2.3,0,0,0-1.07.729,1.7,1.7,0,0,0-.625,1.3,1.748,1.748,0,0,0,.709,1.388l.046.061a1.922,1.922,0,0,0,.655.436l-.162-.068a7.4,7.4,0,0,0,.9.36l.192.068a6.533,6.533,0,0,1,.83.472,7.344,7.344,0,0,1,.809.834l.02.028a2.4,2.4,0,0,0,.849.868,2.634,2.634,0,0,0,.4.159,1.178,1.178,0,0,0,.394.3,1.633,1.633,0,0,0,.922.173,1.485,1.485,0,0,0,.83-.4,1.742,1.742,0,0,0,.492-.941A2.157,2.157,0,0,0,33.346-275.208Z" transform="translate(-2.44 -16.366)" fill="#664369"/>
    <path id="Path_65856" data-name="Path 65856" d="M56.435-271.173l-.357-.463a2.292,2.292,0,0,0-1.009-.587,2.546,2.546,0,0,0-.892-.166,3.162,3.162,0,0,0-1.452.408,6.113,6.113,0,0,0-.742.382c-.217.149-.423.319-.633.476a5.6,5.6,0,0,0-1.13.991l-.188.21-.147.165a2.149,2.149,0,0,0-.588,1.2,1.822,1.822,0,0,0,.395,1.574,2.312,2.312,0,0,0,1.329.69,3.744,3.744,0,0,0,1.167-.086,3.4,3.4,0,0,0,1.1-.262c.345-.127.69-.252,1.03-.4a7.666,7.666,0,0,0,.945-.508,3.052,3.052,0,0,0,1.074-1.009,2.635,2.635,0,0,0,.327-.858A2.4,2.4,0,0,0,56.435-271.173Z" transform="translate(-4.745 -17.182)" fill="#664369"/>
    <path id="Path_65857" data-name="Path 65857" d="M63.452-274.319a1.572,1.572,0,0,0-.371-.7,1.571,1.571,0,0,0-.581-.533,2.059,2.059,0,0,0-1.045-.282,1.824,1.824,0,0,0-.677.112,4.257,4.257,0,0,0-.637.263,2.241,2.241,0,0,0-.782.787l-.05.069-.086.12q-.1.245-.207.491-.038.272-.073.545.035.274.073.546a1.536,1.536,0,0,0,.367.7,1.035,1.035,0,0,0,.368.369,1.035,1.035,0,0,0,.453.264,1.031,1.031,0,0,0,.518.14,1.558,1.558,0,0,0,.819-.037,2.346,2.346,0,0,0,1.2-.62l.106-.12.045-.052a2.312,2.312,0,0,0,.558-.954A2.084,2.084,0,0,0,63.452-274.319Z" transform="translate(-5.677 -16.85)" fill="#664369"/>
  </g>
</svg>
