<svg width="195" height="105" viewBox="0 0 195 105" fill="none" xmlns="http://www.w3.org/2000/svg">
<path fill-rule="evenodd" clip-rule="evenodd" d="M136.5 16C135.1 16 132.9 16.1001 130.3 18.7L121.9 27.1001C121.4 27.6001 121.9 27.3999 122.1 27.2C123.6 26.1001 125.5 25.3 128.1 25.3C131.4 25.3 134.8 26.3999 136.7 29.8C137.919 31.9565 138.522 34.9038 139.17 38.0652L139.3 38.7C139.6 40 139.9 40.3 140.6 40.3C141.3 40.3 142.2 39.3999 142.5 37.6001L143.4 37.3C142.7 41.8 138.5 44.7 133.3 44.7C129.3 44.7 124.3 43 124.3 33.8999C124.3 29.3 123.3 28 122.2 28C121.5 28 120.5 28.7 119.6 29.6001V43.3H122V44.1001H103V43.3H105.4V2.80005H103V2H119.6V28.3L129.5 18.3999C129.7 18.2 129.884 18.0198 130.05 17.8564C130.799 17.1216 131.2 16.7273 131.2 16.3999C131.2 16.1001 130.7 16 129.7 16H129.3V15.2H136.7V16H136.5ZM94.6001 44.8C87.2 44.8 83.7 41.7 83.7 33.7C83.7 29.8999 83.8 26.2 83.8 21.8999C83.8 18.2 83.3 16.3999 82 16.3999C80.1001 16.3999 78.3 19.2 78.3 22.7V43.3H80.7V44.1001H61.7V43.3H64.1001V16H61.7V15.2H78.3V18.5C79.7 15.6001 82.8 14.3999 86.1001 14.3999C89.1001 14.3999 92.2 15.3999 94.2 16.8999C96.6001 18.8 98.2 21.6001 98.2 26.2C98.2 28.5803 98.1731 31.3892 98.1472 34.0999C98.1233 36.6274 98.1001 39.0698 98.1001 41C98.1001 42.1001 98.3 42.6001 98.8999 42.6001C99.5 42.6001 100 42 100.2 41.6001H101C100 44.1001 97.1001 44.8 94.6001 44.8ZM49.6001 10.3999C46.8 10.3999 44.3999 8 44.3999 5.19995C44.3999 2.3999 46.7 0 49.6001 0C52.3999 0 54.8 2.3999 54.8 5.19995C54.8 8 52.3999 10.3999 49.6001 10.3999ZM17.1001 15.3C15.8 15.3 14.3999 15.8 14.3999 18.6001V39.8C14.3999 42.7 16.2 43.5 17.3999 43.5C18.6001 43.5 19.8999 42.8 19.8999 40.7V18.8999C19.8999 16.2 18.5 15.3 17.1001 15.3ZM19.3999 44.7C17.2 44.7 15.5 44.2 14.5 43.5V57.5H16.8V58.3H0V32.5C0 22.3 4.69995 14.3999 17.5 14.3999C30.3 14.3999 34.3999 22.3 34.3999 30C34.3999 39 28.2 44.7 19.3999 44.7ZM193.8 84.3999C190.9 88.7 186.8 91.3 180.2 91.3C171.3 91.3 164.2 85.6001 164.3 76.2C164.3 67.8 170.6 61 180.9 61C190.9 61 195 68.8 195 72.8999C195 74.3999 194.5 75.3999 193.5 75.3999H178V86.1001C178 89.8999 179.5 90.3 181.9 90.3C184.9 90.3 190.3 88.3999 192.9 84L193.8 84.3999ZM182.5 74.5C183.4 74.5 183.5 74.5 183.5 73.3999V64.6001C183.5 62.2 181.6 61.8 180.8 61.8C180.1 61.8 178 61.8999 178 64.8999V74.5H182.5ZM140.3 62C139 62 137.6 62.5 137.6 65.3V86.5C137.6 89.3999 139.4 90.2 140.6 90.2C141.8 90.2 143.1 89.5 143.1 87.3999V65.6001C143.1 62.8999 141.7 62 140.3 62ZM142.6 91.3999C140.4 91.3999 138.7 90.8999 137.7 90.2H137.6V104.2H140V105H123.2V79.2C123.2 69 127.9 61.1001 140.7 61.1001C153.5 61.1001 157.6 69 157.6 76.7C157.6 85.7 151.4 91.3999 142.6 91.3999ZM99.3 61.8999C98.6001 61.8999 96.5 62 96.5 65V87.6001C96.5 90.3999 98.7002 90.3999 99.2002 90.3999C100.1 90.3999 102 89.8999 102 87.2V64.7C102 62.3 100.1 61.8999 99.3 61.8999ZM116.7 76.2C116.7 84 111 91.3999 99.2002 91.3999C86.1001 91.3999 81.7002 83.2 81.7002 76.2C81.7002 69.7 86.2002 61.1001 99.2002 61.1001C111.2 61.1001 116.7 68.7 116.7 76.2ZM72.5 91.3999C65 91.3999 61.5 88.3999 61.6001 80.2V68.1001C61.6001 64.6001 61.3 63 60 63C58 63 56.2002 65.7 56.2002 69.1001V89.8999H58.6001V90.7H39.6001V89.8999H42V15.8H39.6001V15H56.1001V65.1001C57.5 62.2 60.6001 61 63.9001 61C66.9001 61 70 62 72 63.5C74.4001 65.3999 75.9001 68.3 75.9001 72.8V87.5C75.9001 88.7 76 89.2 76.7002 89.2C77.4001 89.2 77.9001 88.6001 78.1001 88.2H78.9001C78.1001 90.6001 75 91.3999 72.5 91.3999Z" fill="#73313B"/>
</svg>
